<?xml version="1.0" encoding="UTF-8"?>
<svg version="1.1" xmlns="http://www.w3.org/2000/svg" width="2000" height="1500">
<path d="M0 0 C660 0 1320 0 2000 0 C2000 495 2000 990 2000 1500 C1340 1500 680 1500 0 1500 C0 1005 0 510 0 0 Z " fill="#FFDC00" transform="translate(0,0)"/>
<path d="M0 0 C19.74011365 7.13488348 35.25934684 18.36600062 49.72167969 33.32324219 C52.70405732 32.00201683 54.51909205 30.63919095 56.65917969 28.19824219 C70.54714899 13.92366988 91.28080444 7.4676116 110.6887207 6.97973633 C135.32172685 6.71295287 155.77664719 15.08516934 173.90917969 32.07324219 C190.17041075 49.1778981 198.39343999 70.95003038 198.12646484 94.38208008 C197.90642826 101.66681737 196.96508952 108.36594692 194.72167969 115.32324219 C194.22861328 116.99 194.22861328 116.99 193.72558594 118.69042969 C189.48095702 131.87962265 182.49853445 143.49310756 172.72167969 153.32324219 C177.45195864 163.53068624 183.25701711 173.01355458 189.08642578 182.6171875 C191.78626979 187.08494967 194.44322566 191.57781756 197.09667969 196.07324219 C197.63510498 196.98541504 198.17353027 197.89758789 198.72827148 198.83740234 C208.27776273 215.03634694 217.71727113 231.29828207 227.10473633 247.59155273 C231.39511587 255.0343437 235.7054324 262.46520165 240.03417969 269.88574219 C240.60797363 270.87010254 241.18176758 271.85446289 241.77294922 272.86865234 C244.43717224 277.4333698 247.11310799 281.99031727 249.81933594 286.53027344 C250.29137451 287.32425537 250.76341309 288.1182373 251.24975586 288.9362793 C252.12233688 290.40165235 252.9985759 291.86485587 253.87915039 293.32543945 C256.72167969 298.10130002 256.72167969 298.10130002 256.72167969 300.32324219 C257.38167969 300.32324219 258.04167969 300.32324219 258.72167969 300.32324219 C258.99173828 299.6087793 259.26179688 298.89431641 259.54003906 298.15820312 C260.73361469 295.29460805 262.10994492 292.66855326 263.62792969 289.96386719 C264.20148193 288.9397876 264.77503418 287.91570801 265.3659668 286.8605957 C265.97835205 285.77576904 266.5907373 284.69094238 267.22167969 283.57324219 C267.85533447 282.446521 268.48898926 281.3197998 269.1418457 280.15893555 C272.97087397 273.36950341 276.85264637 266.61576904 280.83007812 259.91235352 C284.59783202 253.55937571 288.28673399 247.16204334 291.97167969 240.76074219 C296.86313256 232.26667983 301.77546453 223.78553457 306.72167969 215.32324219 C311.5827555 207.00575208 316.41316178 198.67122585 321.22167969 190.32324219 C326.03019813 181.9752576 330.86073651 173.64081035 335.72167969 165.32324219 C343.10582862 152.68580765 350.41658104 140.0064892 357.72167969 127.32324219 C365.59748693 113.64912039 373.49023815 99.98587245 381.45239258 86.36181641 C385.734131 79.03011372 389.98331689 71.68009073 394.22167969 64.32324219 C396.09362158 61.07860792 397.96595744 57.83420128 399.83837891 54.58984375 C401.10988144 52.38441156 402.37969807 50.17800665 403.64794922 47.97070312 C405.52191333 44.71043419 407.4024342 41.45402453 409.28417969 38.19824219 C409.84363281 37.22113281 410.40308594 36.24402344 410.97949219 35.23730469 C422.54835031 15.27753982 422.54835031 15.27753982 432.72167969 11.32324219 C440.56331925 10.49272371 448.31503596 10.24262472 454.72167969 15.32324219 C459.54159806 19.78652983 462.54716723 24.17857129 462.83105469 30.92089844 C462.84496074 33.392699 462.80954774 35.85317369 462.72167969 38.32324219 C463.41132812 38.57976562 464.10097656 38.83628906 464.81152344 39.10058594 C468.10248714 40.48323243 471.18255551 42.1307741 474.28417969 43.88574219 C474.96053467 44.26722412 475.63688965 44.64870605 476.33374023 45.04174805 C484.53139514 49.71632606 492.57057332 54.65762776 500.62207031 59.57788086 C506.86327059 63.38913399 513.12058366 67.16774067 519.42480469 70.87402344 C520.04675217 71.2400618 520.66869965 71.60610016 521.30949402 71.98323059 C524.29591272 73.7396139 527.28549224 75.49029992 530.27954102 77.23364258 C531.34454834 77.85875732 532.40955566 78.48387207 533.50683594 79.12792969 C534.44406494 79.67433105 535.38129395 80.22073242 536.34692383 80.78369141 C538.4665421 82.15783686 540.10278579 83.39448059 541.72167969 85.32324219 C542.78799633 90.81163669 541.84630374 95.69017894 538.72167969 100.32324219 C535.2262526 103.81866928 532.63316719 104.98050135 527.72167969 105.32324219 C524.97119141 104.25024414 524.97119141 104.25024414 522.15136719 102.56152344 C521.10094238 101.9435791 520.05051758 101.32563477 518.96826172 100.68896484 C517.85563965 100.01140137 516.74301758 99.33383789 515.59667969 98.63574219 C514.42290152 97.93686106 513.24824796 97.23944823 512.07275391 96.54345703 C509.70959294 95.14028836 507.35258463 93.72762072 505.00097656 92.30517578 C502.19120813 90.60701466 499.37382059 88.92332563 496.54980469 87.24902344 C491.59038709 84.30115701 486.65428835 81.31570263 481.72167969 78.32324219 C480.52801029 77.59958381 479.33432434 76.87595273 478.140625 76.15234375 C469.99739528 71.21519764 461.85818997 66.27145369 453.72167969 61.32324219 C449.91701038 65.94319778 446.95625818 70.77810622 443.97167969 75.94824219 C443.46507812 76.80675781 442.95847656 77.66527344 442.43652344 78.54980469 C441.95828125 79.37480469 441.48003906 80.19980469 440.98730469 81.04980469 C440.55192383 81.7982666 440.11654297 82.54672852 439.66796875 83.31787109 C438.50830408 85.40585579 438.50830408 85.40585579 438.72167969 88.32324219 C441.02532966 90.08485436 441.02532966 90.08485436 444.08105469 91.73730469 C444.64881622 92.06427338 445.21657776 92.39124207 445.80154419 92.7281189 C447.03695147 93.43815683 448.27526328 94.143159 449.51605225 94.84375 C452.84467468 96.72367733 456.15241439 98.63985268 459.46386719 100.54980469 C460.14768463 100.94274719 460.83150208 101.3356897 461.53604126 101.74053955 C468.62536542 105.82175768 475.61685485 110.05825257 482.59667969 114.32324219 C484.90252269 115.73103464 487.20856674 117.13849693 489.51464844 118.54589844 C490.57731934 119.19445801 491.63999023 119.84301758 492.73486328 120.51123047 C495.4045243 122.13083355 498.08359778 123.73188198 500.77246094 125.31933594 C501.48869629 125.74279297 502.20493164 126.16625 502.94287109 126.60253906 C504.7351321 127.65822397 506.53095363 128.70785817 508.32714844 129.75683594 C510.72167969 131.32324219 510.72167969 131.32324219 511.72167969 133.32324219 C512.09549823 138.93052036 511.90658796 142.49096757 508.72167969 147.32324219 C504.97515792 151.173834 502.04492948 152.05527002 496.72167969 152.32324219 C493.50292969 151.01904297 493.50292969 151.01904297 490.22167969 149.01855469 C489.62873108 148.66432434 489.03578247 148.31009399 488.42486572 147.94512939 C486.51253533 146.79705571 484.61756176 145.62323998 482.72167969 144.44824219 C481.39950103 143.64781739 480.0762526 142.84915709 478.75195312 142.05224609 C476.18024109 140.50093535 473.61484154 138.94006628 471.05566406 137.36816406 C467.37904598 135.11308548 463.67908435 132.90218321 459.97167969 130.69824219 C458.27846895 129.67748375 456.58531523 128.65662968 454.89306641 127.63427734 C450.34963985 124.89105713 445.80227493 122.15438885 441.25354004 119.41998291 C439.56738378 118.40571533 437.88231345 117.38964316 436.19726562 116.37353516 C435.15989258 115.74979004 434.12251953 115.12604492 433.05371094 114.48339844 C432.12276611 113.92273682 431.19182129 113.3620752 430.23266602 112.78442383 C428.09422787 111.54003372 425.94986404 110.39604752 423.72167969 109.32324219 C423.32070068 110.64122803 423.32070068 110.64122803 422.91162109 111.98583984 C421.77044969 115.18645804 420.42674971 117.81479216 418.68261719 120.72167969 C418.10253906 121.69492187 417.52246094 122.66816406 416.92480469 123.67089844 C416.01988281 125.16943359 416.01988281 125.16943359 415.09667969 126.69824219 C414.48566406 127.72046875 413.87464844 128.74269531 413.24511719 129.79589844 C411.74245432 132.30816292 410.23452254 134.8170994 408.72167969 137.32324219 C409.45185303 137.5992627 410.18202637 137.8752832 410.93432617 138.15966797 C413.55605369 139.254102 415.88180998 140.48788407 418.31933594 141.94042969 C419.62898315 142.71749268 419.62898315 142.71749268 420.96508789 143.51025391 C421.89538818 144.06729004 422.82568848 144.62432617 423.78417969 145.19824219 C424.76153076 145.77977051 425.73888184 146.36129883 426.74584961 146.96044922 C429.74028782 148.74390672 432.73146304 150.53271729 435.72167969 152.32324219 C436.99881836 153.08701172 436.99881836 153.08701172 438.30175781 153.86621094 C441.51470498 155.78831085 444.72702512 157.71132055 447.93286133 159.64526367 C452.73316027 162.54065944 457.55197757 165.40080124 462.38964844 168.23339844 C463.52362061 168.90193848 464.65759277 169.57047852 465.82592773 170.25927734 C468.04549249 171.56749446 470.26945701 172.86828284 472.49829102 174.16064453 C473.51044678 174.7595752 474.52260254 175.35850586 475.56542969 175.97558594 C476.46455078 176.50144287 477.36367187 177.0272998 478.29003906 177.5690918 C481.04821091 179.55879709 482.84640989 181.48768799 484.72167969 184.32324219 C484.72167969 190.24153603 483.53578759 193.66155475 479.72167969 198.32324219 C477.0729904 200.97193148 475.67580044 202.21890608 471.92871094 202.62866211 C468.07810814 202.26195199 466.05077398 201.11444342 462.78417969 199.06152344 C462.23097046 198.71950897 461.67776123 198.37749451 461.10778809 198.02511597 C459.30474161 196.90715049 457.51359358 195.7714476 455.72167969 194.63574219 C454.46417494 193.85270617 453.20569939 193.0712272 451.94628906 192.29125977 C450.03419038 191.10684329 448.122712 189.92155062 446.2142334 188.73130798 C440.60333036 185.23284152 434.92695722 181.85303426 429.22167969 178.51074219 C423.80599043 175.32959236 418.39876488 172.13704961 413.02246094 168.88964844 C412.10078125 168.33317627 411.17910156 167.7767041 410.22949219 167.20336914 C408.47664989 166.14324885 406.72526446 165.0807147 404.97558594 164.01538086 C404.19699219 163.54463135 403.41839844 163.07388184 402.61621094 162.58886719 C401.93405518 162.17411133 401.25189941 161.75935547 400.54907227 161.33203125 C398.59030948 160.17854013 398.59030948 160.17854013 395.72167969 159.32324219 C393.72243259 162.84395279 391.728758 166.36775223 389.74023438 169.89453125 C389.0627305 171.09429122 388.38369988 172.29319035 387.703125 173.49121094 C386.72614689 175.21160387 385.75507436 176.93534628 384.78417969 178.65917969 C384.19765625 179.69606934 383.61113281 180.73295898 383.00683594 181.80126953 C381.57033578 184.14848022 381.57033578 184.14848022 381.72167969 186.32324219 C384.06485547 187.97579773 384.06485547 187.97579773 387.11621094 189.67480469 C387.9718866 190.1714135 387.9718866 190.1714135 388.84484863 190.67805481 C390.08564478 191.39702947 391.32842547 192.11258735 392.57290649 192.82516479 C394.54783443 193.95606126 396.51760224 195.09547326 398.48608398 196.23754883 C401.21163295 197.81855195 403.93879182 199.39672163 406.66699219 200.97314453 C420.32462506 208.87653598 433.92465409 216.90101815 447.34667969 225.19824219 C447.99805908 225.59712646 448.64943848 225.99601074 449.32055664 226.40698242 C453.6021957 229.08427421 453.6021957 229.08427421 454.72167969 231.32324219 C455.31800957 237.28654103 454.10595972 241.4825692 450.72167969 246.32324219 C447.90917969 248.88574219 447.90917969 248.88574219 444.72167969 250.32324219 C439.65454137 249.99836382 436.21474155 248.81187654 431.90527344 246.18261719 C430.8225415 245.53067383 429.73980957 244.87873047 428.62426758 244.20703125 C427.46915319 243.49590642 426.31412594 242.78464004 425.15917969 242.07324219 C423.9534563 241.34253053 422.74698403 240.61305326 421.53979492 239.88476562 C419.09448536 238.40820939 416.65250626 236.92637311 414.21289062 235.44042969 C409.26690124 232.43345252 404.27499116 229.50499932 399.28417969 226.57324219 C389.06391692 220.5444619 378.88698881 214.44412701 368.72167969 208.32324219 C365.99632871 211.60421501 363.68948257 214.88181151 361.57714844 218.58496094 C360.990625 219.60783203 360.40410156 220.63070312 359.79980469 221.68457031 C359.17589844 222.78220703 358.55199219 223.87984375 357.90917969 225.01074219 C357.24426557 226.17310936 356.57889232 227.335214 355.91308594 228.49707031 C354.53158839 230.90865679 353.15206404 233.32135563 351.77392578 235.73486328 C348.60829429 241.27495148 345.41348976 246.79821052 342.22167969 252.32324219 C340.97282627 254.48721495 339.72412887 256.65127777 338.47558594 258.81542969 C337.85699707 259.88760742 337.2384082 260.95978516 336.60107422 262.06445312 C334.71187803 265.34023784 332.8240386 268.61680111 330.93652344 271.89355469 C325.44300684 281.42794463 319.94511737 290.9595642 314.3996582 300.46386719 C313.24927748 302.43640948 312.10128409 304.41034621 310.95581055 306.38574219 C307.9189004 311.61247697 304.82848887 316.79816395 301.66308594 321.94824219 C301.00381104 323.0360498 300.34453613 324.12385742 299.6652832 325.24462891 C298.39731391 327.33460416 297.11330445 329.41495627 295.8112793 331.48388672 C295.24546143 332.42345215 294.67964355 333.36301758 294.09667969 334.33105469 C293.58878906 335.15234863 293.08089844 335.97364258 292.55761719 336.81982422 C291.12178985 341.11975807 293.20069833 344.21545914 295.04345703 348.13378906 C295.54312988 349.09349609 296.04280273 350.05320312 296.55761719 351.04199219 C297.1206958 352.12689941 297.68377441 353.21180664 298.26391602 354.32958984 C298.86872803 355.48249512 299.47354004 356.63540039 300.09667969 357.82324219 C300.73314073 359.04370476 301.36945047 360.26424625 302.00561523 361.48486328 C306.22584035 369.56262699 310.56732551 377.56974642 314.96923828 385.54980469 C319.93608805 394.6082454 324.6278979 403.80423251 329.33563232 412.99890137 C333.67022581 421.46028333 338.05373378 429.87997893 342.65917969 438.19824219 C348.30422803 448.39727912 353.60213669 458.76559371 358.90792847 469.14349365 C363.40383582 477.93264449 367.93703849 486.68655935 372.72167969 495.32324219 C377.92728218 504.71979584 382.83225812 514.25984419 387.72167969 523.82324219 C392.6747105 533.51065064 397.64749898 543.17347442 402.90917969 552.69824219 C407.36482979 560.76760426 411.68722927 568.90008086 415.9359436 577.07989502 C416.62233447 578.40090266 417.31012345 579.72118486 417.99935913 581.04071045 C418.95798347 582.87748159 419.91100835 584.71704232 420.86230469 586.55761719 C421.4143457 587.62206055 421.96638672 588.68650391 422.53515625 589.78320312 C423.72167969 592.32324219 423.72167969 592.32324219 423.72167969 594.32324219 C419.39612612 595.42763884 416.03321605 595.5713185 411.72167969 594.32324219 C407.33254793 590.67408929 404.39137679 585.44517556 401.30761719 580.70996094 C398.64116627 576.69714934 395.73004801 572.86895599 392.84667969 569.01074219 C391.66033926 567.40112882 390.4754531 565.79044264 389.29199219 564.17871094 C385.77206887 559.39096161 382.24732509 554.6067787 378.72167969 549.82324219 C377.55499081 548.23992522 376.38832415 546.65659188 375.22167969 545.07324219 C374.64417969 544.28949219 374.06667969 543.50574219 373.47167969 542.69824219 C343.72167969 502.32324219 313.97167969 461.94824219 284.22167969 421.57324219 C283.64321289 420.78820312 283.06474609 420.00316406 282.46875 419.19433594 C281.31175998 417.624089 280.15485774 416.05377737 278.99804688 414.48339844 C275.93407507 410.32428594 272.86821796 406.16657931 269.79980469 402.01074219 C269.15914062 401.14255859 268.51847656 400.274375 267.85839844 399.37988281 C266.62718652 397.71150145 265.39544023 396.04351428 264.16308594 394.37597656 C263.61007812 393.62638672 263.05707031 392.87679688 262.48730469 392.10449219 C262.00036133 391.44513672 261.51341797 390.78578125 261.01171875 390.10644531 C259.87745072 388.53856233 258.79510999 386.93338765 257.72167969 385.32324219 C250.6394102 393.87915159 244.12689083 402.84493519 237.56835938 411.80322266 C234.62776873 415.81601703 231.67430976 419.81930315 228.72167969 423.82324219 C227.55494634 425.40652638 226.38827979 426.98985981 225.22167969 428.57324219 C194.88834635 469.73990885 164.55501302 510.90657552 134.22167969 552.07324219 C133.64361572 552.85779785 133.06555176 553.64235352 132.4699707 554.45068359 C131.30915625 556.02599358 130.14818746 557.60118984 128.98706055 559.17626953 C125.97954654 563.25641706 122.97514735 567.33880633 119.97558594 571.42480469 C119.35748047 572.26591797 118.739375 573.10703125 118.10253906 573.97363281 C116.93485844 575.562732 115.76811079 577.1525174 114.60253906 578.74316406 C113.52909581 580.20320153 112.44873297 581.65818007 111.36108398 583.10766602 C110.20545609 584.66944161 109.08202268 586.2552933 107.98266602 587.85717773 C103.53504315 594.10717751 103.53504315 594.10717751 99.41308594 595.20214844 C98.38054687 595.09773437 97.34800781 594.99332031 96.28417969 594.88574219 C95.23359375 594.80453125 94.18300781 594.72332031 93.10058594 594.63964844 C92.31554687 594.53523437 91.53050781 594.43082031 90.72167969 594.32324219 C92.28151675 590.19956301 94.19325625 586.30165817 96.21386719 582.38964844 C96.55551407 581.72449722 96.89716095 581.05934601 97.24916077 580.3740387 C98.36226009 578.20984901 99.47919637 576.04767108 100.59667969 573.88574219 C100.98083038 573.14072449 101.36498108 572.39570679 101.76077271 571.62811279 C106.73179631 561.99101257 111.80030239 552.42088561 117.05126953 542.93286133 C122.20472482 533.56017747 127.03943336 524.02555724 131.90792847 514.50299072 C136.83800686 504.86506911 141.85795471 495.29759321 147.10449219 485.82714844 C151.82418587 477.25174872 156.26630372 468.53776549 160.72167969 459.82324219 C165.63226185 450.21848883 170.55993716 440.63756096 175.78417969 431.19824219 C180.81807079 422.10124384 185.60003734 412.88470115 190.34667969 403.63574219 C190.90147003 402.55493881 190.90147003 402.55493881 191.46746826 401.45230103 C192.91506769 398.631808 194.36245327 395.8112054 195.80944824 392.99040222 C198.48546644 387.77623796 201.1812289 382.57296 203.90917969 377.38574219 C204.27648193 376.68336426 204.64378418 375.98098633 205.0222168 375.25732422 C207.12107288 371.2687315 209.27583874 367.31624228 211.4797821 363.38459778 C212.80430846 361.01797349 214.11674393 358.64472982 215.42886353 356.27120972 C216.38764644 354.54941194 217.36441227 352.8376671 218.34155273 351.1262207 C218.92461182 350.07104248 219.5076709 349.01586426 220.10839844 347.92871094 C220.63651123 346.9918042 221.16462402 346.05489746 221.70874023 345.08959961 C223.17815595 341.07659659 222.52744397 338.13637493 220.81713867 334.2878418 C220.45434814 333.68979736 220.09155762 333.09175293 219.71777344 332.47558594 C219.31147705 331.79568604 218.90518066 331.11578613 218.48657227 330.4152832 C218.04853271 329.70428467 217.61049316 328.99328613 217.15917969 328.26074219 C216.70373779 327.50398193 216.2482959 326.74722168 215.77905273 325.9675293 C213.23393447 321.75093684 210.63521234 317.56801935 208.03417969 313.38574219 C202.69243266 304.76586067 197.70451748 295.9383363 192.65136719 287.14746094 C189.03438673 280.85725314 185.38438109 274.58690939 181.72167969 268.32324219 C176.22197657 258.91348468 170.76718673 249.47853483 165.32714844 240.03417969 C160.58615805 231.80861044 155.80932431 223.60453003 151.01757812 215.40844727 C147.85651942 209.99699871 144.70955249 204.57777898 141.58105469 199.14746094 C141.23667358 198.54974884 140.89229248 197.95203674 140.53747559 197.33621216 C138.86276337 194.42858569 137.18979295 191.51997737 135.51855469 188.61035156 C134.92042969 187.57072266 134.32230469 186.53109375 133.70605469 185.45996094 C133.1772168 184.53916748 132.64837891 183.61837402 132.10351562 182.66967773 C131.03343158 180.85261452 129.89140005 179.07782273 128.72167969 177.32324219 C126.1856397 176.97169518 126.1856397 176.97169518 123.21777344 177.17089844 C122.09282471 177.20183594 120.96787598 177.23277344 119.80883789 177.26464844 C118.60445068 177.30460938 117.40006348 177.34457031 116.15917969 177.38574219 C93.34132248 177.72136501 75.6082005 171.73023081 57.72167969 157.32324219 C56.74328125 156.55238281 55.76488281 155.78152344 54.75683594 154.98730469 C38.73463154 141.5222155 29.65239253 119.76466439 27.72167969 99.32324219 C27.29481643 91.38244222 26.86978521 83.13793507 29.28417969 75.47558594 C30.76429648 68.19393992 29.26563033 63.09678853 26.15917969 56.57324219 C25.79566406 55.78755859 25.43214844 55.001875 25.05761719 54.19238281 C15.8627031 34.29276668 15.8627031 34.29276668 -0.27832031 20.32324219 C-4.05207405 18.98256652 -7.81663226 17.7678971 -11.65722656 16.63183594 C-15.37580303 15.28801381 -18.16344462 13.74799572 -21.27832031 11.32324219 C-22.46582031 8.38574219 -22.46582031 8.38574219 -22.27832031 5.32324219 C-16.35111187 -1.88552484 -8.72696147 -2.59227788 0 0 Z " fill="#FFFEFD" transform="translate(736.2783203125,260.6767578125)"/>
<path d="M0 0 C1.23251406 0.99587136 2.46209759 1.99539081 3.6875 3 C4.533125 3.5775 5.37875 4.155 6.25 4.75 C13.94348414 11.85167767 21.0373928 23.46488044 21.84863281 34.11547852 C22.18759692 52.38603812 19.98721264 67.02890865 6.953125 80.93359375 C-6.05707347 92.79979201 -19.96969174 95.8389362 -36.9609375 95.17480469 C-49.91428299 94.21191065 -61.37445693 86.94728707 -70.171875 77.72265625 C-80.55348708 64.51830658 -83.77919017 50.54246459 -82.3125 34 C-80.00058964 21.90054098 -73.10056075 9.58141259 -63.3125 2 C-44.11551334 -10.68331377 -19.75059846 -14.72925987 0 0 Z " fill="#FFDC01" transform="translate(877.3125,310)"/>
<path d="M0 0 C231.99 0 463.98 0 703 0 C703 2.31 703 4.62 703 7 C471.01 7 239.02 7 0 7 C0 4.69 0 2.38 0 0 Z " fill="#FFFADB" transform="translate(649,1146)"/>
<path d="M0 0 C4.81857088 3.97581671 9.64457018 8.96616109 10.6875 15.3125 C11.4493416 24.04956945 11.88057106 31.72951439 6.62109375 39.18359375 C3.36712297 42.76624845 -0.30322466 45.62183077 -4.3125 48.3125 C-3.22001953 49.49779297 -3.22001953 49.49779297 -2.10546875 50.70703125 C1.24701669 54.7307228 3.24213287 59.25100964 5.375 64 C6.14772347 65.69232827 6.9223842 67.38377366 7.69921875 69.07421875 C8.20134888 70.1873645 8.20134888 70.1873645 8.71362305 71.32299805 C9.74691837 73.54505437 9.74691837 73.54505437 11.6875 76.3125 C17.09513629 76.84439865 20.21541564 76.66656327 24.6875 73.3125 C24.40387301 79.12685334 21.87053812 82.51151923 17.6875 86.3125 C14.77615547 88.08910788 13.79066181 88.31625134 10.25 88.1875 C6.21481595 87.19640216 4.67228176 86.16770984 1.6875 83.3125 C0.24864356 80.8325886 -0.99528815 78.46458503 -2.1875 75.875 C-2.87618031 74.44462609 -3.56630868 73.01494855 -4.2578125 71.5859375 C-4.59973633 70.87147461 -4.94166016 70.15701172 -5.29394531 69.42089844 C-6.82652108 66.24848129 -8.42810155 63.12149059 -10.0625 60 C-10.59359375 58.97261719 -11.1246875 57.94523437 -11.671875 56.88671875 C-13.35504454 54.24574559 -14.60221616 52.852434 -17.3125 51.3125 C-19.46980944 50.92726617 -21.51535436 50.87629048 -23.703125 50.81640625 C-27.592661 50.06528328 -30.84765709 48.18439154 -34.3125 46.3125 C-34.28968063 50.70947976 -34.21234042 55.10386575 -34.125 59.5 C-34.11919922 60.74587891 -34.11339844 61.99175781 -34.10742188 63.27539062 C-34.07544456 70.34643286 -34.07544456 70.34643286 -31.01171875 76.48828125 C-30.12097656 77.09027344 -29.23023438 77.69226562 -28.3125 78.3125 C-26.9925 79.3025 -25.6725 80.2925 -24.3125 81.3125 C-34.2125 81.3125 -44.1125 81.3125 -54.3125 81.3125 C-49.3125 77.3125 -49.3125 77.3125 -47.52702332 75.97392273 C-45.60355393 73.34268814 -45.9098473 70.94547785 -45.88012695 67.72973633 C-45.8699353 67.06605545 -45.85974365 66.40237457 -45.84924316 65.71858215 C-45.81907375 63.52714643 -45.80984172 61.3361475 -45.80078125 59.14453125 C-45.78393739 57.62422732 -45.76578754 56.10393735 -45.74638367 54.58366394 C-45.69884526 50.58391682 -45.669061 46.58422626 -45.64294434 42.58428955 C-45.61315801 38.50204293 -45.56662113 34.41999127 -45.52148438 30.33789062 C-45.43540766 22.32952278 -45.36808207 14.32113726 -45.3125 6.3125 C-48.6125 5.6525 -51.9125 4.9925 -55.3125 4.3125 C-53.13594878 2.13594878 -51.78868125 1.61850282 -48.91796875 0.62109375 C-48.04462891 0.31623047 -47.17128906 0.01136719 -46.27148438 -0.30273438 C-45.35689453 -0.61533203 -44.44230469 -0.92792969 -43.5 -1.25 C-42.59701172 -1.56646484 -41.69402344 -1.88292969 -40.76367188 -2.20898438 C-27.49664076 -6.80029345 -12.16905182 -8.45841291 0 0 Z " fill="#FFFDF6" transform="translate(1032.3125,1010.6875)"/>
<path d="M0 0 C0.66 0 1.32 0 2 0 C2.4650293 1.08039551 2.4650293 1.08039551 2.93945312 2.18261719 C12.13530132 23.52581944 21.52828272 44.77793146 31 66 C38.11438451 50.2133224 45.02316237 34.36309659 51.63354492 18.35913086 C54.21741839 12.12122011 56.86816477 5.98511781 60 0 C60.33 0 60.66 0 61 0 C61.12117188 0.95519531 61.24234375 1.91039062 61.3671875 2.89453125 C61.53476563 4.18746094 61.70234375 5.48039063 61.875 6.8125 C62.03742188 8.07707031 62.19984375 9.34164062 62.3671875 10.64453125 C62.79417579 13.75395568 63.33214839 16.8268912 63.91796875 19.91015625 C65.51662758 28.53681105 66.58429491 37.24714068 67.74731445 45.94091797 C68.4662738 51.29878232 69.21777101 56.65101126 70 62 C70.16861542 63.17846497 70.16861542 63.17846497 70.34063721 64.3807373 C70.67945223 66.70225425 71.04129408 69.01902546 71.41015625 71.3359375 C71.50977158 72.03385406 71.6093869 72.73177063 71.71202087 73.45083618 C72.82902977 80.15618321 75.67397441 83.0054808 81 87 C71.1 87 61.2 87 51 87 C53.96509599 84.77617801 56.81598383 82.85734277 60 81 C59.04381653 69.2305317 57.79540333 57.70740402 55.41125488 46.13816833 C54.87520843 43.35119217 54.41402144 40.5541764 53.95117188 37.75415039 C53.77259644 36.67589493 53.594021 35.59763947 53.41003418 34.48670959 C53.20706726 33.25578835 53.20706726 33.25578835 53 32 C52.76054153 32.55408539 52.52108307 33.10817078 52.27436829 33.67904663 C49.76289142 39.48884181 47.24743102 45.29690063 44.72973633 51.10400391 C43.79285801 53.26632876 42.85696819 55.4290822 41.92211914 57.59228516 C40.57182516 60.71632532 39.21788626 63.83876462 37.86328125 66.9609375 C37.45161209 67.91551849 37.03994293 68.87009949 36.61579895 69.85360718 C33.94019679 76.00824991 31.06234836 82.02843336 28 88 C25.21635586 85.21635586 24.06601167 81.84483077 22.55078125 78.2734375 C22.21507614 77.49296051 21.87937103 76.71248352 21.53349304 75.90835571 C20.45532047 73.39914331 19.38374237 70.88717783 18.3125 68.375 C17.26154654 65.92253282 16.2092464 63.47064709 15.15670776 61.01885986 C14.46196186 59.3989443 13.76853765 57.77846124 13.07644653 56.15740967 C11.38521426 52.20047179 9.67537299 48.25389586 7.91943359 44.32519531 C7.42904854 43.2238475 7.42904854 43.2238475 6.92875671 42.10025024 C6.31258381 40.72033308 5.69190843 39.34241447 5.06599426 37.96688843 C3.79627926 35.11868037 3 33.15812076 3 30 C2.34 30 1.68 30 1 30 C0.97421875 30.95132812 0.9484375 31.90265625 0.921875 32.8828125 C0.63364351 40.55709327 0.04063456 48.12553198 -1.02734375 55.734375 C-1.16769547 56.73843887 -1.16769547 56.73843887 -1.31088257 57.76278687 C-1.78815305 61.14225059 -2.2853944 64.51771061 -2.80371094 67.89111328 C-3.07683105 69.76645752 -3.07683105 69.76645752 -3.35546875 71.6796875 C-3.52715576 72.80101074 -3.69884277 73.92233398 -3.87573242 75.07763672 C-4.00641355 78.1508256 -3.71247199 79.48827731 -2 82 C-0.30272775 83.31210005 -0.30272775 83.31210005 1.625 84.25 C3.295625 85.11625 3.295625 85.11625 5 86 C5 86.33 5 86.66 5 87 C-3.58 87 -12.16 87 -21 87 C-19.1679601 85.77864007 -17.31742081 84.58379317 -15.4375 83.4375 C-12.90836385 80.90836385 -12.60501004 80.27635406 -11.94140625 76.9609375 C-11.780354 76.15873779 -11.61930176 75.35653809 -11.45336914 74.5300293 C-10.71809651 70.42683585 -10.08814614 66.31411235 -9.5 62.1875 C-9.24032831 60.41004726 -8.97991588 58.63270256 -8.71875 56.85546875 C-8.595 56.01161621 -8.47125 55.16776367 -8.34375 54.29833984 C-7.92914173 51.52623598 -7.47293328 48.76271858 -7 46 C-5.68414384 38.25711089 -4.55834436 30.48508667 -3.40429688 22.71679688 C-2.71138243 18.06054569 -2.01155294 13.40533281 -1.3125 8.75 C-1.0585633 7.05729623 -0.80465415 5.36458834 -0.55078125 3.671875 C-0.36902344 2.46015625 -0.18726563 1.2484375 0 0 Z " fill="#FFFDF5" transform="translate(1182,1005)"/>
<path d="M0 0 C9.9 0 19.8 0 30 0 C27.94051867 1.544611 25.87892279 3.08697246 23.78808594 4.58886719 C21.00679029 8.33928715 21.39685693 12.02298979 21.390625 16.578125 C21.37408875 17.5046991 21.35755249 18.43127319 21.34051514 19.38592529 C21.29199274 22.340684 21.27065476 25.29492789 21.25 28.25 C21.22184387 30.25523429 21.19191695 32.26044456 21.16015625 34.265625 C21.08290275 39.1773211 21.04242327 44.08738561 21 49 C32.88 49 44.76 49 57 49 C56.8801923 43.07334243 56.75758112 37.14688413 56.62768555 31.22045898 C56.58434471 29.20389271 56.54266902 27.18728993 56.50268555 25.1706543 C56.44496253 22.27381383 56.38127378 19.37715694 56.31640625 16.48046875 C56.29969376 15.57725388 56.28298126 14.674039 56.26576233 13.74345398 C56.2358445 12.4824865 56.2358445 12.4824865 56.20532227 11.19604492 C56.18200584 10.08684944 56.18200584 10.08684944 56.15821838 8.95524597 C56.06087775 6.7848329 56.06087775 6.7848329 55 4 C53.35448038 3.28272222 51.68577711 2.61674772 50 2 C49.34 1.34 48.68 0.68 48 0 C57.9 0 67.8 0 78 0 C76.68 0.99 75.36 1.98 74 3 C71.01516664 5.35540106 70.09927059 6.37703589 69.49206543 10.1875 C69.48888306 11.445625 69.48570068 12.70375 69.48242188 14 C69.4754126 14.69641602 69.46840332 15.39283203 69.46118164 16.11035156 C69.44360804 18.40730932 69.45522081 20.70303021 69.46875 23 C69.46605487 24.59896073 69.46217227 26.19791987 69.45715332 27.796875 C69.45125918 31.14599226 69.45981808 34.49468243 69.47851562 37.84375 C69.50130565 42.13478591 69.48818204 46.42482111 69.46422577 50.71582031 C69.4497652 54.01700366 69.45437485 57.31795011 69.46473694 60.61914062 C69.46740354 62.20117308 69.46413678 63.78322711 69.45481873 65.36523438 C69.44464821 67.57740163 69.4601581 69.787953 69.48242188 72 C69.48560425 73.258125 69.48878662 74.51625 69.49206543 75.8125 C70.35388125 81.22075154 73.75444712 82.81583534 78 86 C68.1 86 58.2 86 48 86 C53 82 53 82 55 82 C56.88624671 78.78345298 57.29047742 76.28567739 57.4140625 72.578125 C57.44967285 71.65418945 57.4852832 70.73025391 57.52197266 69.77832031 C57.55597168 68.61397461 57.5899707 67.44962891 57.625 66.25 C57.74875 62.5375 57.8725 58.825 58 55 C45.46 55 32.92 55 20 55 C20.061875 58.691875 20.12375 62.38375 20.1875 66.1875 C20.19418701 67.3427417 20.20087402 68.4979834 20.20776367 69.68823242 C20.3638958 75.80845072 20.3638958 75.80845072 23.30078125 81.05078125 C24.19152344 81.69402344 25.08226562 82.33726563 26 83 C27.32 83.99 28.64 84.98 30 86 C20.1 86 10.2 86 0 86 C5 82 5 82 7 82 C8.16325124 78.51024627 8.12707518 75.78066733 8.12939453 72.09765625 C8.13114685 71.39977997 8.13289917 70.70190369 8.13470459 69.98287964 C8.13910577 67.67606113 8.13619121 65.36931929 8.1328125 63.0625 C8.13348604 61.45971665 8.13445648 59.85693339 8.13571167 58.25415039 C8.13718629 54.89500964 8.13504163 51.53589548 8.13037109 48.17675781 C8.12467395 43.86910384 8.12795421 39.56151216 8.13394356 35.25386047 C8.13755551 31.94420908 8.13640766 28.63457249 8.13381577 25.32492065 C8.13314826 23.73648064 8.13396879 22.14803928 8.13629532 20.55960083 C8.13883221 18.3404789 8.13496657 16.12145814 8.12939453 13.90234375 C8.12859894 12.63898193 8.12780334 11.37562012 8.12698364 10.07397461 C8.14039752 6.95985543 8.14039752 6.95985543 7 4 C5.35448038 3.28272222 3.68577711 2.61674772 2 2 C1.34 1.34 0.68 0.68 0 0 Z " fill="#FFFCEF" transform="translate(741,1006)"/>
<path d="M0 0 C3.36960561 1.6848028 3.92269078 5.56785652 5.16796875 8.94921875 C5.6354528 10.19211166 5.6354528 10.19211166 6.11238098 11.46011353 C6.78843925 13.25869602 7.46154877 15.05838899 8.13208008 16.85903931 C9.19150603 19.69823591 10.26268775 22.53271024 11.33789062 25.3659668 C14.27739141 33.11396474 17.2112416 40.86383072 20.09228516 48.63378906 C21.72636476 53.0403903 23.38476813 57.43709422 25.06045532 61.82803345 C25.68287394 63.47391391 26.29563068 65.12348321 26.89828491 66.77670288 C30.2228149 76.99727486 30.2228149 76.99727486 37.4375 84.48046875 C38.613125 84.98191406 39.78875 85.48335937 41 86 C41 86.33 41 86.66 41 87 C30.77 87 20.54 87 10 87 C12.6855594 84.3144406 15.37621328 83.93950026 19 83 C19.64987936 76.8870723 17.32212996 72.1266204 15 66.625 C13.02 61.860625 13.02 61.860625 11 57 C-1.87 56.505 -1.87 56.505 -15 56 C-15.99 59.3 -16.98 62.6 -18 66 C-18.69725448 67.76295781 -19.41834953 69.51720123 -20.1875 71.25 C-21.73779148 74.98720456 -22.43169852 77.89886404 -22 82 C-19.36 83.32 -16.72 84.64 -14 86 C-14 86.33 -14 86.66 -14 87 C-22.25 87 -30.5 87 -39 87 C-37.35 85.68 -35.7 84.36 -34 83 C-31.39343971 80.73598533 -30.30034591 78.75886927 -29.08984375 75.52978516 C-28.74482819 74.62165573 -28.39981262 73.71352631 -28.04434204 72.77787781 C-27.67908417 71.79156876 -27.31382629 70.8052597 -26.9375 69.7890625 C-26.5492807 68.76057693 -26.1610614 67.73209137 -25.76107788 66.67243958 C-24.49986778 63.32606628 -23.24998009 59.97558226 -22 56.625 C-21.14095775 54.34091826 -20.28109336 52.05714555 -19.42041016 49.77368164 C-17.31768138 44.19078806 -15.22305265 38.60489989 -13.13098145 33.01800537 C-11.0248119 27.39772661 -8.90828931 21.78137114 -6.78515625 16.16748047 C-5.86521044 13.73414735 -4.94839507 11.29962775 -4.03515625 8.86376953 C-3.63941406 7.81431152 -3.24367188 6.76485352 -2.8359375 5.68359375 C-2.33392822 4.34639282 -2.33392822 4.34639282 -1.82177734 2.98217773 C-1 1 -1 1 0 0 Z " fill="#FFFDF3" transform="translate(935,1005)"/>
<path d="M0 0 C1.98217453 1.20207006 3.72917267 2.31225816 5.37109375 3.94921875 C5.37109375 4.60921875 5.37109375 5.26921875 5.37109375 5.94921875 C6.15484375 5.47484375 6.93859375 5.00046875 7.74609375 4.51171875 C9.26058053 3.61023852 10.79468345 2.7374239 12.37109375 1.94921875 C12.37109375 10.19921875 12.37109375 18.44921875 12.37109375 26.94921875 C10.57209131 24.25071509 9.71972938 22.21854611 8.68359375 19.19921875 C6.25205353 12.99334745 2.6293219 8.77700527 -3.19140625 5.51171875 C-7.90135099 4.42480842 -10.57581986 4.36192057 -14.87890625 6.76171875 C-17.60456666 8.92985771 -19.36420313 10.48638572 -20 14 C-20.02191406 14.74636719 -20.04382813 15.49273438 -20.06640625 16.26171875 C-20.10636719 17.00035156 -20.14632812 17.73898437 -20.1875 18.5 C-19.31623449 22.32016416 -17.61847963 24.54695583 -14.62890625 26.94921875 C-10.1117947 29.43121002 -5.41974568 31.47433342 -0.69140625 33.51171875 C18.89203745 42.02831483 18.89203745 42.02831483 22.671875 50.44921875 C24.63789551 57.47856583 24.70142649 65.32574418 21.30859375 71.88671875 C16.18187829 79.59111237 10.52844085 84.73203872 1.37109375 86.94921875 C-8.0442216 88.2002949 -17.41295442 86.14474328 -25.84765625 81.80859375 C-27.67544056 80.75147876 -27.67544056 80.75147876 -30.12890625 81.07421875 C-33.20663186 81.94852353 -33.20663186 81.94852353 -36.62890625 85.94921875 C-36.62890625 72.41921875 -36.62890625 58.88921875 -36.62890625 44.94921875 C-36.29890625 44.94921875 -35.96890625 44.94921875 -35.62890625 44.94921875 C-35.47035156 45.8928125 -35.31179688 46.83640625 -35.1484375 47.80859375 C-32.66161587 63.35335208 -32.66161587 63.35335208 -23.62890625 75.57421875 C-16.56973179 80.27084692 -9.95365021 80.73438203 -1.62890625 79.94921875 C3.21127282 78.7295245 6.38566921 76.4297848 9.37109375 72.44921875 C12.16940105 67.37609701 12.68670052 61.55989466 11.37109375 55.94921875 C7.41186654 50.53220077 1.61283185 48.54023223 -4.37890625 46.01171875 C-25.28948589 37.12897252 -25.28948589 37.12897252 -29.87890625 27.26171875 C-31.18018893 21.5143869 -31.85493916 15.59676528 -29.06640625 10.19921875 C-22.52183712 0.34742964 -11.48062223 -4.58883712 0 0 Z " fill="#FFFDF6" transform="translate(705.62890625,1006.05078125)"/>
<path d="M0 0 C7.38152297 -0.38178799 14.76049176 -0.6435398 22.1496582 -0.82397461 C24.65974002 -0.89920426 27.16916873 -1.00142744 29.67700195 -1.1315918 C50.0006257 -2.1596664 50.0006257 -2.1596664 55.06719971 1.48846436 C58.66226537 5.47010188 60.62572914 9.85423665 62 15 C61.67 15.66 61.34 16.32 61 17 C60.30132813 16.36191406 59.60265625 15.72382812 58.8828125 15.06640625 C57.97273437 14.24011719 57.06265625 13.41382813 56.125 12.5625 C55.22007812 11.73878906 54.31515625 10.91507813 53.3828125 10.06640625 C49.68028824 6.85552865 47.52795895 6.83646717 42.6796875 6.68359375 C41.54772949 6.64548584 40.41577148 6.60737793 39.24951172 6.56811523 C37.80592285 6.52501221 36.36233398 6.48190918 34.875 6.4375 C28.006875 6.2209375 28.006875 6.2209375 21 6 C21 20.19 21 34.38 21 49 C37.91007136 49.7968777 37.91007136 49.7968777 49.671875 42.69140625 C51.0698679 41.0274678 51.0698679 41.0274678 52 39 C52.99 39.495 52.99 39.495 54 40 C52.07047571 43.44203533 50.13002745 46.87778883 48.1875 50.3125 C47.64029297 51.28896484 47.09308594 52.26542969 46.52929688 53.27148438 C45.99755859 54.20927734 45.46582031 55.14707031 44.91796875 56.11328125 C44.18743286 57.40939331 44.18743286 57.40939331 43.44213867 58.73168945 C42.12396325 60.80502073 40.81231614 62.35692739 39 64 C38.690625 62.865625 38.38125 61.73125 38.0625 60.5625 C37.37075469 57.21224901 37.37075469 57.21224901 36 56 C33.47206606 55.76328017 30.97065034 55.5785675 28.4375 55.4375 C25.983125 55.293125 23.52875 55.14875 21 55 C21 63.25 21 71.5 21 80 C25.84086164 79.99487197 30.67474634 79.97140972 35.51416016 79.90234375 C37.15698148 79.88427304 38.79995367 79.87659895 40.44287109 79.87988281 C52.42204171 80.20557911 52.42204171 80.20557911 62.54101562 74.5625 C63.02248047 74.046875 63.50394531 73.53125 64 73 C65.15643911 72.02934946 66.32261302 71.07013162 67.5 70.125 C68.7375 69.073125 68.7375 69.073125 70 68 C69.71576172 68.68553955 69.43152344 69.3710791 69.13867188 70.07739258 C67.92683382 73.02521688 67.92683382 73.02521688 67.12695312 76.3034668 C65.45022579 80.61240051 64.04504955 83.57953691 60 86 C50.84598664 88.17610939 40.9834826 87.28006384 31.63696289 86.89263916 C28.07146563 86.75892792 24.50478882 86.70013108 20.9375 86.63476562 C13.95540268 86.495909 6.97804755 86.27447408 0 86 C2 84 2 84 4.5 82.5625 C7.23702985 81.09034084 7.23702985 81.09034084 9 78 C9.31938066 74.90020572 9.31938066 74.90020572 9.29052734 71.31298828 C9.29724457 70.63783173 9.30396179 69.96267517 9.31088257 69.26705933 C9.32988269 67.03473554 9.33378781 64.80271212 9.3359375 62.5703125 C9.34236439 61.01715979 9.34909267 59.46400831 9.35610962 57.91085815 C9.36808764 54.65424798 9.37178995 51.39774393 9.37060547 48.14111328 C9.37040233 43.97240108 9.39769662 39.80437098 9.43214989 35.63582039 C9.45441215 32.42728565 9.45844322 29.21891519 9.45738602 26.01031113 C9.4597433 24.47373988 9.4685741 22.9371642 9.48405075 21.4006691 C9.50369713 19.24856391 9.49787969 17.09793081 9.48583984 14.94580078 C9.48868988 13.72240997 9.49153992 12.49901917 9.49447632 11.23855591 C8.9044146 7.37396663 7.7353406 5.7435264 5 3 C2.38181544 1.66701026 2.38181544 1.66701026 0 1 C0 0.67 0 0.34 0 0 Z " fill="#FFFDF6" transform="translate(828,1006)"/>
<path d="M0 0 C7.38152297 -0.38178799 14.76049176 -0.6435398 22.1496582 -0.82397461 C24.65974002 -0.89920426 27.16916873 -1.00142744 29.67700195 -1.1315918 C50.0006257 -2.1596664 50.0006257 -2.1596664 55.06719971 1.48846436 C58.66226537 5.47010188 60.62572914 9.85423665 62 15 C61.67 15.66 61.34 16.32 61 17 C60.55269531 16.52949219 60.10539062 16.05898438 59.64453125 15.57421875 C59.03996094 14.95160156 58.43539063 14.32898438 57.8125 13.6875 C57.22082031 13.07261719 56.62914062 12.45773437 56.01953125 11.82421875 C51.63628178 7.86488122 48.29597807 6.62319585 42.38671875 6.48828125 C41.26225342 6.45516846 40.13778809 6.42205566 38.97924805 6.38793945 C36.85483276 6.35059692 36.85483276 6.35059692 34.6875 6.3125 C27.9121875 6.1578125 27.9121875 6.1578125 21 6 C21 20.19 21 34.38 21 49 C38.77623357 49.69853962 38.77623357 49.69853962 50.55078125 41.71484375 C51.02902344 41.14894531 51.50726562 40.58304688 52 40 C52 43.53487596 51.13753305 44.85736507 49.375 47.88671875 C48.83359375 48.82451172 48.2921875 49.76230469 47.734375 50.72851562 C46.87585937 52.19321289 46.87585937 52.19321289 46 53.6875 C45.14148437 55.16959961 45.14148437 55.16959961 44.265625 56.68164062 C42.84947536 59.12449876 41.42741542 61.56371318 40 64 C39.67 64 39.34 64 39 64 C38.690625 62.865625 38.38125 61.73125 38.0625 60.5625 C37.37075469 57.21224901 37.37075469 57.21224901 36 56 C33.47206606 55.76328017 30.97065034 55.5785675 28.4375 55.4375 C25.983125 55.293125 23.52875 55.14875 21 55 C21 63.25 21 71.5 21 80 C25.87606439 79.94883458 30.74899854 79.88575018 35.62402344 79.79248047 C37.28049514 79.76434438 38.93709927 79.7430933 40.59375 79.72900391 C42.98245676 79.70747109 45.36958386 79.66077245 47.7578125 79.609375 C48.85973434 79.60753204 48.85973434 79.60753204 49.98391724 79.60565186 C57.03156557 79.40720078 61.15049463 76.16348559 65.875 71.25 C66.47054688 70.63640625 67.06609375 70.0228125 67.6796875 69.390625 C68.33324219 68.70226563 68.33324219 68.70226563 69 68 C69 74.28684839 66.48027575 79.97232767 62.20147705 84.52764893 C54.21773118 89.86718985 40.889564 87.47721495 31.56829834 87.02996826 C28.00974938 86.87554124 24.44961663 86.80781569 20.88867188 86.73242188 C13.92186192 86.57230856 6.96139461 86.31690392 0 86 C1.485 85.01 1.485 85.01 3 84 C6.53678072 81.45954713 6.53678072 81.45954713 9 78 C9.11247552 75.81093131 9.15937367 73.6183991 9.17700195 71.42651367 C9.18685875 70.41399788 9.18685875 70.41399788 9.19691467 69.38102722 C9.21665263 67.14333996 9.22831158 64.90571985 9.23828125 62.66796875 C9.24235678 61.90376429 9.2464323 61.13955982 9.25063133 60.35219765 C9.27149468 56.30698542 9.28579495 52.26180714 9.29516602 48.21655273 C9.30622824 44.0400055 9.34062461 39.86399138 9.38033772 35.68763256 C9.40649503 32.47482824 9.41485705 29.26215108 9.41844749 26.04924965 C9.42331617 24.50987461 9.4349383 22.97050536 9.45348549 21.43123436 C9.47785868 19.27428453 9.47691619 17.11871556 9.4699707 14.96166992 C9.47583694 13.73526291 9.48170319 12.5088559 9.48774719 11.24528503 C8.90566904 7.37235753 7.74131705 5.74697888 5 3 C2.38181544 1.66701026 2.38181544 1.66701026 0 1 C0 0.67 0 0.34 0 0 Z " fill="#FFFDF6" transform="translate(1268,1006)"/>
<path d="M0 0 C2.2729893 -0.09892728 4.54975291 -0.12804404 6.82470703 -0.09887695 C8.64230026 -0.12677055 8.64230026 -0.12677055 10.49661255 -0.15522766 C13.05333242 -0.17648789 15.61046855 -0.16705611 18.16699219 -0.12890625 C22.0698325 -0.08729347 25.95104072 -0.18936445 29.85205078 -0.30395508 C47.36243897 -0.45998265 47.36243897 -0.45998265 52.31652832 3.12762451 C55.92269651 7.10118657 57.87542796 11.44115925 59.20751953 16.6003418 C58.87751953 17.2603418 58.54751953 17.9203418 58.20751953 18.6003418 C57.76021484 18.12983398 57.31291016 17.65932617 56.85205078 17.17456055 C56.24748047 16.55194336 55.64291016 15.92932617 55.02001953 15.2878418 C54.42833984 14.67295898 53.83666016 14.05807617 53.22705078 13.42456055 C47.97888946 8.68395835 43.73222765 8.10171495 36.89501953 7.9128418 C36.0590625 7.87868164 35.22310547 7.84452148 34.36181641 7.80932617 C32.31084182 7.72728719 30.25920415 7.66212669 28.20751953 7.6003418 C28.24555585 17.04953119 28.3048869 26.49827675 28.39142227 35.94714737 C28.43093475 40.3346532 28.46310456 44.72195721 28.47851562 49.10961914 C28.49365763 53.34386203 28.52805872 57.57755021 28.57582855 61.81154633 C28.59066786 63.42702158 28.59856201 65.04257602 28.59940338 66.6581192 C28.60176727 68.92103745 28.62879658 71.1824154 28.66162109 73.44506836 C28.67050354 74.73302307 28.67938599 76.02097778 28.6885376 77.34796143 C29.56100025 82.81555136 32.91195266 84.37866664 37.20751953 87.6003418 C27.30751953 87.6003418 17.40751953 87.6003418 7.20751953 87.6003418 C12.20751953 83.6003418 12.20751953 83.6003418 14.20751953 83.6003418 C15.37806688 80.08869974 15.36818179 77.26537396 15.4128418 73.55859375 C15.42274139 72.84614502 15.43264099 72.13369629 15.44284058 71.3996582 C15.47441453 69.04601356 15.49919672 66.69234874 15.52392578 64.33862305 C15.54449886 62.70622739 15.56549542 61.07383701 15.5868988 59.44145203 C15.64208297 55.14578533 15.69150836 50.85007085 15.73974609 46.55432129 C15.7899878 42.17052967 15.84565993 37.78680742 15.90087891 33.40307617 C16.00841578 24.80222337 16.10987067 16.20131252 16.20751953 7.6003418 C13.30649546 7.69262575 10.40813515 7.80325134 7.50830078 7.92456055 C6.28101257 7.960755 6.28101257 7.960755 5.02893066 7.99768066 C-1.50758572 8.29351794 -5.24605775 9.79001064 -9.79248047 14.6003418 C-10.78248047 15.3840918 -11.77248047 16.1678418 -12.79248047 16.9753418 C-13.45248047 17.5115918 -14.11248047 18.0478418 -14.79248047 18.6003418 C-7.99911466 1.16032357 -7.99911466 1.16032357 0 0 Z " fill="#FFFCEE" transform="translate(1065.79248046875,1004.399658203125)"/>
<path d="M0 0 C5.5054986 4.0635823 8.86466477 8.25953102 10.625 14.9375 C11.3828366 23.02696515 11.92953474 31.29827587 6.625 37.9375 C1.28822533 43.01394419 -3.31168641 43.27808561 -10.421875 43.2265625 C-14.33147181 42.8438771 -16.47383621 41.54110853 -19.375 38.9375 C-19.91060547 38.53966309 -20.44621094 38.14182617 -20.99804688 37.73193359 C-24.01491425 33.80037771 -22.89125033 27.56117683 -22.87597656 22.74121094 C-22.8750061 20.57611301 -22.91658127 18.41458424 -22.9609375 16.25 C-22.96614648 14.86719486 -22.96883266 13.48437745 -22.96875 12.1015625 C-22.97583984 10.84811035 -22.98292969 9.5946582 -22.99023438 8.30322266 C-22.21603703 4.06787164 -20.66041964 2.62224575 -17.375 -0.0625 C-12.3969279 -2.55153605 -5.14098912 -1.61845954 0 0 Z " fill="#FFDC04" transform="translate(1020.375,1012.0625)"/>
<path d="M0 0 C9.9 0 19.8 0 30 0 C28.35 1.32 26.7 2.64 25 4 C21.65245353 7.41819622 21.61679242 10.09530209 21.59594727 14.80053711 C21.58565239 15.81349098 21.58565239 15.81349098 21.57514954 16.84690857 C21.55688382 19.07393563 21.56071849 21.30025802 21.56640625 23.52734375 C21.56184415 25.07906829 21.55653849 26.6307908 21.55052185 28.18251038 C21.54159112 31.43319918 21.54401311 34.68364232 21.55395508 37.93432617 C21.56544219 42.09520155 21.54523793 46.25522794 21.51603794 50.41599178 C21.49766981 53.62025824 21.4979696 56.82432149 21.50367546 60.0286274 C21.50382862 61.56239576 21.49778891 63.09617795 21.48538399 64.62989616 C21.4704639 66.77715791 21.48115598 68.92285476 21.49829102 71.07006836 C21.49845718 72.29044296 21.49862335 73.51081757 21.49879456 74.76817322 C22.37788422 80.43663823 25.5396261 82.65471957 30 86 C20.1 86 10.2 86 0 86 C1.485 85.01 1.485 85.01 3 84 C6.53678072 81.45954713 6.53678072 81.45954713 9 78 C9.11247552 75.81093131 9.15937367 73.6183991 9.17700195 71.42651367 C9.18685875 70.41399788 9.18685875 70.41399788 9.19691467 69.38102722 C9.21665263 67.14333996 9.22831158 64.90571985 9.23828125 62.66796875 C9.24235678 61.90376429 9.2464323 61.13955982 9.25063133 60.35219765 C9.27149468 56.30698542 9.28579495 52.26180714 9.29516602 48.21655273 C9.30622824 44.0400055 9.34062461 39.86399138 9.38033772 35.68763256 C9.40649503 32.47482824 9.41485705 29.26215108 9.41844749 26.04924965 C9.42331617 24.50987461 9.4349383 22.97050536 9.45348549 21.43123436 C9.47785868 19.27428453 9.47691619 17.11871556 9.4699707 14.96166992 C9.47583694 13.73526291 9.48170319 12.5088559 9.48774719 11.24528503 C8.90566904 7.37235753 7.74131705 5.74697888 5 3 C2.38181544 1.66701026 2.38181544 1.66701026 0 1 C0 0.67 0 0.34 0 0 Z " fill="#FFFEF9" transform="translate(1126,1006)"/>
<path d="M0 0 C2.82354409 0.42731797 5.39303891 1.25018432 8.0390625 2.30859375 C7.0490625 2.80359375 7.0490625 2.80359375 6.0390625 3.30859375 C6.04953613 3.86321289 6.06000977 4.41783203 6.07080078 4.98925781 C6.11248254 7.51232334 6.13842688 10.03531628 6.1640625 12.55859375 C6.18082031 13.43128906 6.19757812 14.30398438 6.21484375 15.203125 C6.22128906 16.04746094 6.22773437 16.89179687 6.234375 17.76171875 C6.24484863 18.53676758 6.25532227 19.31181641 6.26611328 20.11035156 C6.00514023 22.63701966 5.40352014 24.17149141 4.0390625 26.30859375 C-0.02943159 29.02092314 -2.12570534 28.61559262 -6.9609375 28.30859375 C-7.6209375 27.64859375 -8.2809375 26.98859375 -8.9609375 26.30859375 C-8.9609375 25.31859375 -8.9609375 24.32859375 -8.9609375 23.30859375 C-7.3109375 23.63859375 -5.6609375 23.96859375 -3.9609375 24.30859375 C-3.9609375 25.29859375 -3.9609375 26.28859375 -3.9609375 27.30859375 C-0.20942606 25.51951653 -0.20942606 25.51951653 1.8515625 22.12109375 C1.9134375 21.52296875 1.9753125 20.92484375 2.0390625 20.30859375 C0.46125 20.74171875 0.46125 20.74171875 -1.1484375 21.18359375 C-4.9609375 21.30859375 -4.9609375 21.30859375 -7.8984375 18.99609375 C-10.43786651 15.39716786 -10.62480687 11.96937299 -10.37109375 7.65625 C-9.27543474 1.38490652 -6.20175535 -0.38325454 0 0 Z " fill="#FFFBE4" transform="translate(795.9609375,1210.69140625)"/>
<path d="M0 0 C0.66 0 1.32 0 2 0 C3.42621972 3.82613786 4.85033033 7.6530532 6.27246094 11.48071289 C6.75690221 12.78366483 7.24192694 14.0864 7.72753906 15.38891602 C8.42404826 17.25740854 9.11830971 19.12673846 9.8125 20.99609375 C10.23144531 22.12200928 10.65039062 23.2479248 11.08203125 24.40795898 C12 27 12 27 12 28 C5.07 28 -1.86 28 -9 28 C-6.75 17.875 -6.75 17.875 -5.2734375 13.96484375 C-4.9640625 13.13662109 -4.6546875 12.30839844 -4.3359375 11.45507812 C-3.86027344 10.20887695 -3.86027344 10.20887695 -3.375 8.9375 C-2.88773438 7.6390918 -2.88773438 7.6390918 -2.390625 6.31445312 C-1.59908318 4.20755504 -0.80216278 2.10287198 0 0 Z " fill="#FFDD08" transform="translate(932,1027)"/>
<path d="M0 0 C0 2.97 0 5.94 0 9 C0.78375 8.835 1.5675 8.67 2.375 8.5 C6.93966142 7.87039153 11.40072601 7.91819473 16 8 C15.01 8.495 15.01 8.495 14 9 C14.2165625 9.68707031 14.433125 10.37414063 14.65625 11.08203125 C14.9346875 11.98308594 15.213125 12.88414063 15.5 13.8125 C15.7784375 14.70582031 16.056875 15.59914063 16.34375 16.51953125 C17 19 17 19 17 22 C17.66 22 18.32 22 19 22 C19.52938657 20.04396149 20.04826801 18.08507711 20.5625 16.125 C20.85253906 15.03445313 21.14257812 13.94390625 21.44140625 12.8203125 C22.2867036 10.0630178 22.2867036 10.0630178 21 8 C23.31 8 25.62 8 28 8 C27.34 8.33 26.68 8.66 26 9 C25.33415173 10.96250016 24.67819523 12.92866187 24.05859375 14.90625 C22.65599506 19.0053576 21.0255905 22.99542574 19.375 27 C19.06151611 27.76634766 18.74803223 28.53269531 18.42504883 29.32226562 C16.12694901 34.87305099 16.12694901 34.87305099 15 36 C12.0625 36.1875 12.0625 36.1875 9 36 C8.34 35.34 7.68 34.68 7 34 C7 33.01 7 32.02 7 31 C8.65 31 10.3 31 12 31 C12.33 31.99 12.66 32.98 13 34 C15.38457284 30.00180644 14.87914471 27.87499513 13.78125 23.51953125 C12.67158169 19.94085094 11.2805348 16.50825453 9.8046875 13.06640625 C9 11 9 11 9 9 C8.2575 9.515625 7.515 10.03125 6.75 10.5625 C4 12 4 12 0 11 C0.33 16.61 0.66 22.22 1 28 C-0.98 28 -2.96 28 -5 28 C-4.67 22.39 -4.34 16.78 -4 11 C-5.98 11 -7.96 11 -10 11 C-9.67 10.01 -9.34 9.02 -9 8 C-7.35 8.33 -5.7 8.66 -4 9 C-4 7.02 -4 5.04 -4 3 C-4.66 3 -5.32 3 -6 3 C-6 2.34 -6 1.68 -6 1 C-4 0 -4 0 0 0 Z " fill="#FFFCE9" transform="translate(944,1203)"/>
<path d="M0 0 C3.70982506 0.08123705 6.78808026 0.86523211 10.25 2.25 C9.26 2.745 9.26 2.745 8.25 3.25 C8.25 7.87 8.25 12.49 8.25 17.25 C8.91 17.58 9.57 17.91 10.25 18.25 C2.20478723 22.11170213 2.20478723 22.11170213 -2.75 21.25 C-5.71511991 19.20736184 -7.35452869 17.59169101 -8.38671875 14.08984375 C-8.98373687 10.24453347 -9.04502045 7.91028387 -7.4375 4.3125 C-4.13461538 0.27564103 -4.13461538 0.27564103 0 0 Z " fill="#FFFBE2" transform="translate(1190.75,1210.75)"/>
<path d="M0 0 C3.5 1 3.5 1 6 2 C5.01 2.495 5.01 2.495 4 3 C4 7.62 4 12.24 4 17 C4.66 17.33 5.32 17.66 6 18 C-2.04521277 21.86170213 -2.04521277 21.86170213 -7 21 C-9.875 19.1875 -9.875 19.1875 -12 16 C-12.88502228 10.86687077 -12.72646116 6.54372996 -10.5 1.8125 C-7.04845991 -0.68986656 -4.0607119 -0.61455218 0 0 Z " fill="#FFFBE5" transform="translate(702,1211)"/>
<path d="M0 0 C2.82354409 0.42731797 5.39303891 1.25018432 8.0390625 2.30859375 C7.0490625 2.80359375 7.0490625 2.80359375 6.0390625 3.30859375 C6.0390625 7.92859375 6.0390625 12.54859375 6.0390625 17.30859375 C6.6990625 17.63859375 7.3590625 17.96859375 8.0390625 18.30859375 C-0.1655707 22.24681769 -0.1655707 22.24681769 -4.9609375 21.30859375 C-8.22131477 18.61523862 -9.64785288 17.01558554 -10.41015625 12.859375 C-10.58919817 8.72906321 -10.26220661 5.93623773 -8.4609375 2.18359375 C-5.56653218 0.01278976 -3.58755576 -0.22170288 0 0 Z " fill="#FFFCED" transform="translate(1243.9609375,1210.69140625)"/>
<path d="M0 0 C3.4375 0.6875 3.4375 0.6875 5.8125 3.0625 C8.45387809 7.32934153 8.63681314 9.4906271 8 14.41796875 C7.09137682 18.0840109 5.55865131 19.65196654 2.4375 21.6875 C-1.76405864 21.83492311 -3.74406016 21.35904038 -7 18.6875 C-9.14389706 14.57121765 -9.47186759 11.23433793 -8.5625 6.6875 C-6.67806291 2.60177357 -4.49402789 0.86726854 0 0 Z " fill="#FFFCEA" transform="translate(1040.5625,1210.3125)"/>
<path d="M0 0 C2.82504115 2.17310858 3.79527957 3.83927377 4.4140625 7.34765625 C4.66127009 11.6607781 4.47702101 15.08844373 1.9375 18.6875 C-1 21 -1 21 -4.625 21.0625 C-9.18032787 19.6284153 -9.18032787 19.6284153 -11 17 C-12.3570795 12.92876149 -12.64791492 9.2524071 -12 5 C-8.70041099 0.10061026 -5.81086516 -1.05652094 0 0 Z " fill="#FFFCEB" transform="translate(853,1211)"/>
<path d="M0 0 C0.96808594 -0.01417969 1.93617187 -0.02835938 2.93359375 -0.04296875 C5.5625 0.1875 5.5625 0.1875 8.5625 2.1875 C9.2225 1.5275 9.8825 0.8675 10.5625 0.1875 C14.6909735 -0.35777008 16.85268605 -0.24456067 20.4375 1.9375 C23.20246224 6.16626579 23.20769921 9.56942437 23.32421875 14.54296875 C23.2918802 17.34407895 23.2918802 17.34407895 25.5625 19.1875 C23.5825 19.5175 21.6025 19.8475 19.5625 20.1875 C19.50191406 19.21167969 19.44132812 18.23585938 19.37890625 17.23046875 C19.29511719 15.95816406 19.21132812 14.68585938 19.125 13.375 C19.04378906 12.11042969 18.96257812 10.84585937 18.87890625 9.54296875 C18.69065453 6.19568107 18.69065453 6.19568107 17.5625 3.1875 C15.5825 3.1875 13.6025 3.1875 11.5625 3.1875 C11.5625 8.7975 11.5625 14.4075 11.5625 20.1875 C9.5825 20.1875 7.6025 20.1875 5.5625 20.1875 C5.58570313 19.21167969 5.60890625 18.23585938 5.6328125 17.23046875 C5.65085937 15.95816406 5.66890625 14.68585938 5.6875 13.375 C5.71070313 12.11042969 5.73390625 10.84585937 5.7578125 9.54296875 C5.83831918 6.0536976 5.83831918 6.0536976 3.5625 3.1875 C0.97869823 2.93719023 0.97869823 2.93719023 -1.4375 3.1875 C-1.46441685 5.64590605 -1.48429802 8.10401882 -1.5 10.5625 C-1.50837891 11.26117187 -1.51675781 11.95984375 -1.52539062 12.6796875 C-1.6210442 16.56045376 -1.6210442 16.56045376 -0.4375 20.1875 C-2.7475 20.1875 -5.0575 20.1875 -7.4375 20.1875 C-7.4375 13.9175 -7.4375 7.6475 -7.4375 1.1875 C-4.84996844 -0.10626578 -2.88791015 0.01917603 0 0 Z " fill="#FFFCED" transform="translate(1305.4375,1210.8125)"/>
<path d="M0 0 C3.4375 0.625 3.4375 0.625 5.875 2.3125 C7.4375 4.625 7.4375 4.625 8.0625 7.0625 C7.0869412 11.06229106 4.78779224 12.41254286 1.4375 14.625 C-1.4375 14.9375 -1.4375 14.9375 -3.5625 14.625 C-3.2325 15.945 -2.9025 17.265 -2.5625 18.625 C0.79183109 17.67566101 4.12996505 16.72751165 7.4375 15.625 C6.06766497 18.78615776 5.4484362 19.6177092 2.4375 21.625 C-3.78472222 21.40277778 -3.78472222 21.40277778 -6.4375 18.75 C-8.63351444 14.60197272 -9.03553857 11.27654599 -8.5625 6.625 C-6.61288694 2.62086197 -4.47707505 0.78545176 0 0 Z " fill="#FFFBE3" transform="translate(1342.5625,1210.375)"/>
<path d="M0 0 C2.5 2.1875 2.5 2.1875 4 5 C4.125 7.5625 4.125 7.5625 3 10 C-0.64654014 12.99826633 -2.21552606 14 -7 14 C-6.67 14.99 -6.34 15.98 -6 17 C-4.02 17 -2.04 17 0 17 C0.33 16.34 0.66 15.68 1 15 C1.99 15.33 2.98 15.66 4 16 C1.9375 18.5625 1.9375 18.5625 -1 21 C-4.62761169 21 -6.92005751 20.79195782 -9.875 18.625 C-12.67513205 14.58036481 -12.71867759 9.71683799 -12 5 C-8.70041099 0.10061026 -5.81086516 -1.05652094 0 0 Z " fill="#FFFBE6" transform="translate(999,1211)"/>
<path d="M0 0 C3.625 0.375 3.625 0.375 6.0625 2.0625 C7.625 4.375 7.625 4.375 8.25 6.8125 C7.2744412 10.81229106 4.97529224 12.16254286 1.625 14.375 C-1.25 14.6875 -1.25 14.6875 -3.375 14.375 C-3.045 15.695 -2.715 17.015 -2.375 18.375 C-0.00070704 18.62569913 -0.00070704 18.62569913 2.625 18.375 C4.31298827 16.93749809 4.31298827 16.93749809 5.625 15.375 C6.285 15.375 6.945 15.375 7.625 15.375 C6.25516497 18.53615776 5.6359362 19.3677092 2.625 21.375 C-0.8125 21.375 -0.8125 21.375 -4.375 20.375 C-7.34284467 17.17885958 -8.28092229 15.14106132 -8.8125 10.8125 C-8.10248598 5.2338184 -5.8997873 0.65553192 0 0 Z " fill="#FFFBE5" transform="translate(1085.375,1210.625)"/>
<path d="M0 0 C0.06058594 0.97582031 0.12117187 1.95164062 0.18359375 2.95703125 C0.26738281 4.22933594 0.35117187 5.50164062 0.4375 6.8125 C0.51871094 8.07707031 0.59992187 9.34164063 0.68359375 10.64453125 C0.87184547 13.99181893 0.87184547 13.99181893 2 17 C3.98 17 5.96 17 8 17 C8.05383848 14.54137599 8.09359038 12.0839245 8.125 9.625 C8.14175781 8.92632813 8.15851562 8.22765625 8.17578125 7.5078125 C8.19344267 5.67102514 8.10303261 3.83398037 8 2 C7.34 1.34 6.68 0.68 6 0 C8.97 0 11.94 0 15 0 C14.01 0.495 14.01 0.495 13 1 C13 6.61 13 12.22 13 18 C13.66 18.33 14.32 18.66 15 19 C9.65545754 20.59398635 5.50035872 21.69241807 0 20 C-2.87205129 17.20159105 -3.90280314 15.15998874 -4.23828125 11.15625 C-4.2488416 8.42463887 -4.17459096 5.72555887 -4 3 C-4.99 2.67 -5.98 2.34 -7 2 C-4.35261084 0.5393715 -3.10551666 0 0 0 Z " fill="#FFFBE1" transform="translate(867,1211)"/>
<path d="M0 0 C2.52605704 2.28548018 3.51068645 4.0213729 5 7 C5.07033769 8.87379605 5.0843022 10.75001102 5.0625 12.625 C5.05347656 13.62789062 5.04445313 14.63078125 5.03515625 15.6640625 C5.02355469 16.43492188 5.01195312 17.20578125 5 18 C5.66 18.33 6.32 18.66 7 19 C5.02 19.66 3.04 20.32 1 21 C0.95101562 19.95199219 0.90203125 18.90398437 0.8515625 17.82421875 C0.77651857 16.44528646 0.70097143 15.0663815 0.625 13.6875 C0.5940625 12.99720703 0.563125 12.30691406 0.53125 11.59570312 C0.31875081 7.93009211 0.08066139 6.12099208 -2 3 C-3.65 3 -5.3 3 -7 3 C-7 8.61 -7 14.22 -7 20 C-8.98 20 -10.96 20 -13 20 C-13 13.73 -13 7.46 -13 1 C-9.05526839 -0.97236581 -4.28934827 -0.58375746 0 0 Z " fill="#FFFCEC" transform="translate(775,1211)"/>
<path d="M0 0 C0.85722656 -0.01675781 1.71445312 -0.03351563 2.59765625 -0.05078125 C4.9375 0.3125 4.9375 0.3125 6.734375 1.6640625 C8.38169106 3.92109944 8.15832723 5.58896418 7.9375 8.3125 C6.6175 8.3125 5.2975 8.3125 3.9375 8.3125 C3.9375 4.3125 3.9375 4.3125 4.9375 2.3125 C2.6275 2.6425 0.3175 2.9725 -2.0625 3.3125 C-2.3925 6.2825 -2.7225 9.2525 -3.0625 12.3125 C-1.0825 12.3125 0.8975 12.3125 2.9375 12.3125 C2.6075 13.3025 2.2775 14.2925 1.9375 15.3125 C0.2875 14.9825 -1.3625 14.6525 -3.0625 14.3125 C-2.7325 18.9325 -2.4025 23.5525 -2.0625 28.3125 C-4.0425 28.3125 -6.0225 28.3125 -8.0625 28.3125 C-7.7325 20.0625 -7.4025 11.8125 -7.0625 3.3125 C-7.7225 2.9825 -8.3825 2.6525 -9.0625 2.3125 C-5.94428643 0.4965566 -3.5974669 0.01627813 0 0 Z " fill="#FFFCEB" transform="translate(721.0625,1202.6875)"/>
<path d="M0 0 C0.06058594 1.05960938 0.12117188 2.11921875 0.18359375 3.2109375 C0.26800127 4.59897221 0.35264917 5.98699232 0.4375 7.375 C0.47681641 8.07367187 0.51613281 8.77234375 0.55664062 9.4921875 C0.74280134 13.37360492 0.74280134 13.37360492 2 17 C3.98 17 5.96 17 8 17 C8.05383848 14.54137599 8.09359038 12.0839245 8.125 9.625 C8.14175781 8.92632813 8.15851563 8.22765625 8.17578125 7.5078125 C8.19344267 5.67102514 8.10303261 3.83398037 8 2 C7.34 1.34 6.68 0.68 6 0 C8.64 0 11.28 0 14 0 C13.67 0.66 13.34 1.32 13 2 C12.87606534 4.5132797 12.81484888 6.98670114 12.8125 9.5 C12.79413086 10.53447266 12.79413086 10.53447266 12.77539062 11.58984375 C12.77011305 13.39477494 12.87815542 15.19917842 13 17 C13.66 17.66 14.32 18.32 15 19 C9.60644441 20.6086043 5.58665787 21.53359236 0 20 C-2.78645417 17.21354583 -3.94134834 14.48975217 -4.09765625 10.51953125 C-4.08605469 9.62621094 -4.07445312 8.73289062 -4.0625 7.8125 C-4.05347656 6.91144531 -4.04445313 6.01039062 -4.03515625 5.08203125 C-4.02355469 4.39496094 -4.01195312 3.70789062 -4 3 C-4.99 2.67 -5.98 2.34 -7 2 C-4.35261084 0.5393715 -3.10551666 0 0 0 Z " fill="#FFFAE0" transform="translate(1135,1211)"/>
<path d="M0 0 C3.0625 1.75 3.0625 1.75 5 5 C5.47653887 8.13930429 5.68735778 11.18142958 5.76171875 14.35546875 C5.7293802 17.15657895 5.7293802 17.15657895 8 19 C6.02 19.33 4.04 19.66 2 20 C1.95101563 19.02417969 1.90203125 18.04835938 1.8515625 17.04296875 C1.73941406 15.13451172 1.73941406 15.13451172 1.625 13.1875 C1.55539062 11.92292969 1.48578125 10.65835937 1.4140625 9.35546875 C1.23897061 5.87244766 1.23897061 5.87244766 -1 3 C-2.65 3 -4.3 3 -6 3 C-6 8.61 -6 14.22 -6 20 C-7.98 20 -9.96 20 -12 20 C-11.67 14.39 -11.34 8.78 -11 3 C-11.99 2.67 -12.98 2.34 -14 2 C-9.42910417 -0.62852901 -5.15592442 -0.7592057 0 0 Z " fill="#FFFCEF" transform="translate(1066,1211)"/>
<path d="M0 0 C2.64 0 5.28 0 8 0 C7.79503906 0.56203125 7.59007812 1.1240625 7.37890625 1.703125 C6.88980087 4.66801124 7.63744214 6.07109289 8.9375 8.75 C9.9584375 10.85375 9.9584375 10.85375 11 13 C12.32 9.04 13.64 5.08 15 1 C14.34 0.67 13.68 0.34 13 0 C15.31 0 17.62 0 20 0 C19.41476562 1.12664062 18.82953125 2.25328125 18.2265625 3.4140625 C15.56655435 8.73173518 13.535582 14.24843211 11.46875 19.81640625 C11.17742188 20.58597656 10.88609375 21.35554688 10.5859375 22.1484375 C10.3286084 22.84114746 10.0712793 23.53385742 9.80615234 24.24755859 C9 26 9 26 7 28 C3.875 28.125 3.875 28.125 1 28 C0.67 26.35 0.34 24.7 0 23 C1.32 23 2.64 23 4 23 C4 24.32 4 25.64 4 27 C4.66 26.67 5.32 26.34 6 26 C7.45007503 19.62248555 6.63243633 15.56483807 4.125 9.625 C3.84269531 8.91472656 3.56039062 8.20445313 3.26953125 7.47265625 C2.25600389 4.94123956 1.21986209 2.43972419 0 0 Z " fill="#FFFCED" transform="translate(818,1211)"/>
<path d="M0 0 C0.70125 0.00515625 1.4025 0.0103125 2.125 0.015625 C2.82625 0.01046875 3.5275 0.0053125 4.25 0 C6.125 0.265625 6.125 0.265625 8.125 2.265625 C7.75 4.890625 7.75 4.890625 7.125 7.265625 C6.135 6.935625 5.145 6.605625 4.125 6.265625 C4.125 4.945625 4.125 3.625625 4.125 2.265625 C2.805 2.595625 1.485 2.925625 0.125 3.265625 C0.125 4.585625 0.125 5.905625 0.125 7.265625 C0.67929687 7.45898438 1.23359375 7.65234375 1.8046875 7.8515625 C2.89136719 8.24214844 2.89136719 8.24214844 4 8.640625 C4.71929688 8.89585938 5.43859375 9.15109375 6.1796875 9.4140625 C8.125 10.265625 8.125 10.265625 10.125 12.265625 C9.98111045 15.64702938 9.72998077 17.59342415 7.4375 20.140625 C4.37198338 21.63195741 2.50122756 21.74794322 -0.875 21.265625 C-3.75 19.265625 -3.75 19.265625 -5.875 17.265625 C-5.545 15.945625 -5.215 14.625625 -4.875 13.265625 C-2.895 13.760625 -2.895 13.760625 -0.875 14.265625 C-0.875 15.585625 -0.875 16.905625 -0.875 18.265625 C1.435 18.265625 3.745 18.265625 6.125 18.265625 C6.3363453 15.8743955 6.3363453 15.8743955 5.125 13.265625 C2.25825156 11.57262073 -0.74913371 10.39598877 -3.875 9.265625 C-4 5.890625 -4 5.890625 -3.875 2.265625 C-1.875 0.265625 -1.875 0.265625 0 0 Z " fill="#FFFBE5" transform="translate(921.875,1210.734375)"/>
<path d="M0 0 C0 2.97 0 5.94 0 9 C2.31 9 4.62 9 7 9 C6.67 9.99 6.34 10.98 6 12 C3.03 11.505 3.03 11.505 0 11 C0.14058476 13.45873768 0.28722999 15.91685175 0.4375 18.375 C0.47681641 19.07367187 0.51613281 19.77234375 0.55664062 20.4921875 C0.74280134 24.37360492 0.74280134 24.37360492 2 28 C-0.31 28 -2.62 28 -5 28 C-4.67 22.39 -4.34 16.78 -4 11 C-5.98 11 -7.96 11 -10 11 C-9.67 10.01 -9.34 9.02 -9 8 C-7.35 8.33 -5.7 8.66 -4 9 C-4 7.02 -4 5.04 -4 3 C-4.66 3 -5.32 3 -6 3 C-6 2.34 -6 1.68 -6 1 C-3 0 -3 0 0 0 Z " fill="#FFFBE8" transform="translate(1162,1203)"/>
<path d="M0 0 C0 2.97 0 5.94 0 9 C3.465 8.505 3.465 8.505 7 8 C6.34 9.32 5.68 10.64 5 12 C3.35 11.67 1.7 11.34 0 11 C0.33 16.61 0.66 22.22 1 28 C-0.98 28 -2.96 28 -5 28 C-4.67 22.39 -4.34 16.78 -4 11 C-5.98 11 -7.96 11 -10 11 C-9.67 10.01 -9.34 9.02 -9 8 C-7.35 8.33 -5.7 8.66 -4 9 C-4 7.02 -4 5.04 -4 3 C-4.66 3 -5.32 3 -6 3 C-6 2.34 -6 1.68 -6 1 C-4 0 -4 0 0 0 Z " fill="#FFFCED" transform="translate(1276,1203)"/>
<path d="M0 0 C1.32 0 2.64 0 4 0 C4 2.97 4 5.94 4 9 C5.98 9 7.96 9 10 9 C9.67 9.99 9.34 10.98 9 12 C7.35 11.67 5.7 11.34 4 11 C4.33 16.61 4.66 22.22 5 28 C3.02 28 1.04 28 -1 28 C-0.67 22.39 -0.34 16.78 0 11 C-2.31 11.33 -4.62 11.66 -7 12 C-6.34 10.68 -5.68 9.36 -5 8 C-3.35 8.33 -1.7 8.66 0 9 C-0.185625 7.700625 -0.37125 6.40125 -0.5625 5.0625 C-0.87890625 2.84765625 -0.87890625 2.84765625 -1 1 C-0.67 0.67 -0.34 0.34 0 0 Z " fill="#FFFCED" transform="translate(736,1203)"/>
<path d="M0 0 C2.5 2.25 2.5 2.25 4 5 C3.75 7.3125 3.75 7.3125 3 9 C1.68 8.67 0.36 8.34 -1 8 C-1 6.35 -1 4.7 -1 3 C-2.65 3 -4.3 3 -6 3 C-7.24377393 5.48754786 -7.13306235 7.22655301 -7.125 10 C-7.12757812 10.886875 -7.13015625 11.77375 -7.1328125 12.6875 C-7.15127902 15.02676966 -7.15127902 15.02676966 -6 17 C-2.05272412 17.17942163 0.5980513 17.09350689 4 15 C2.63016497 18.16115776 2.0109362 18.9927092 -1 21 C-5.06330308 20.92612176 -7.26796589 20.60064337 -10.4375 18 C-12.56815211 13.90914794 -12.69693593 10.52598395 -12 6 C-9.24950683 -0.00107601 -6.48725074 -0.6710949 0 0 Z " fill="#FFFBE5" transform="translate(1121,1211)"/>
<path d="M0 0 C5.2027027 0.74324324 5.2027027 0.74324324 7.5 3.5 C7.75 6.6875 7.75 6.6875 7.5 9.5 C6.18 9.5 4.86 9.5 3.5 9.5 C3.5 7.52 3.5 5.54 3.5 3.5 C1.83388095 3.457279 0.16617115 3.45936168 -1.5 3.5 C-3.30746134 5.30746134 -2.67303483 8.00445781 -2.6875 10.4375 C-2.70167969 11.51902344 -2.71585938 12.60054687 -2.73046875 13.71484375 C-2.79048031 16.64044315 -2.79048031 16.64044315 -0.5 18.5 C2.07540213 18.33492354 2.07540213 18.33492354 4.5 17.5 C4.83 16.84 5.16 16.18 5.5 15.5 C6.49 15.83 7.48 16.16 8.5 16.5 C5.95258545 19.49695829 4.39347389 21.29524557 0.5 22.1875 C-2.85997171 21.41750648 -4.53277354 20.27249948 -6.58203125 17.48046875 C-8.39420174 13.57080731 -8.23685851 9.6778487 -7.5 5.5 C-5.45584962 1.41169925 -4.53938064 0.64848295 0 0 Z " fill="#FFFBE4" transform="translate(657.5,1210.5)"/>
<path d="M0 0 C1.79296875 1.3515625 1.79296875 1.3515625 3 3 C3.1875 5.6875 3.1875 5.6875 3 8 C1.68 8.33 0.36 8.66 -1 9 C-2.125 5.25 -2.125 5.25 -1 3 C-2.98 3 -4.96 3 -7 3 C-7 8.61 -7 14.22 -7 20 C-8.98 20 -10.96 20 -13 20 C-12.96519531 18.30230469 -12.96519531 18.30230469 -12.9296875 16.5703125 C-12.91093099 15.08854825 -12.89273066 13.60677688 -12.875 12.125 C-12.85824219 11.37863281 -12.84148438 10.63226562 -12.82421875 9.86328125 C-12.8066041 7.90805539 -12.89679811 5.95257979 -13 4 C-13.66 3.34 -14.32 2.68 -15 2 C-10.35435376 -0.47767799 -5.14951562 -0.81170331 0 0 Z " fill="#FFFCEC" transform="translate(900,1211)"/>
<path d="M0 0 C1.99954746 -0.04254356 4.00041636 -0.04080783 6 0 C7.93341947 1.93341947 7.17449133 5.37479121 7.1875 7.9375 C7.20167969 9.20464844 7.21585938 10.47179688 7.23046875 11.77734375 C7 15 7 15 5 17 C0.44444444 16.44444444 0.44444444 16.44444444 -1 15 C-1.0991757 12.85605481 -1.1297015 10.70873268 -1.125 8.5625 C-1.12757812 7.38816406 -1.13015625 6.21382812 -1.1328125 5.00390625 C-1 2 -1 2 0 0 Z " fill="#FFDD0A" transform="translate(1188,1213)"/>
<path d="M0 0 C2.4375 0.1875 2.4375 0.1875 3.4375 1.1875 C3.51063567 3.71799402 3.52997527 6.22054837 3.5 8.75 C3.49548828 9.46091797 3.49097656 10.17183594 3.48632812 10.90429688 C3.47450864 12.66540013 3.45657263 14.42646036 3.4375 16.1875 C1.4575 16.5175 -0.5225 16.8475 -2.5625 17.1875 C-4.87840289 13.71364567 -4.83241835 12.22319994 -4.8125 8.125 C-4.81765625 7.06152344 -4.8228125 5.99804688 -4.828125 4.90234375 C-4.47096989 1.25200842 -3.69658275 0.27048166 0 0 Z " fill="#FFDC05" transform="translate(1242.5625,1212.8125)"/>
<path d="M0 0 C2.375 0.3125 2.375 0.3125 5 1 C7.46372552 4.69558828 7.57583561 7.71044199 7 12 C5.5 15 5.5 15 4 17 C2.125 16.6875 2.125 16.6875 0 16 C-2.15942819 12.76085771 -2.27232978 11.75140267 -2.25 8 C-2.25515625 7.13375 -2.2603125 6.2675 -2.265625 5.375 C-2 3 -2 3 0 0 Z " fill="#FFDE11" transform="translate(1038,1213)"/>
<path d="M0 0 C2.4375 0.1875 2.4375 0.1875 3.4375 1.1875 C3.56307162 3.49743382 3.61325729 5.81168536 3.625 8.125 C3.63917969 9.39214844 3.65335938 10.65929688 3.66796875 11.96484375 C3.4375 15.1875 3.4375 15.1875 1.4375 17.1875 C-1.125 16.9375 -1.125 16.9375 -3.5625 16.1875 C-4.92521133 13.46207733 -4.73173601 11.22662726 -4.75 8.1875 C-4.76417969 7.115 -4.77835938 6.0425 -4.79296875 4.9375 C-4.48468645 1.25901289 -3.72156726 0.2723098 0 0 Z " fill="#FFDD07" transform="translate(698.5625,1212.8125)"/>
<path d="M0 0 C1.7578125 1.3515625 1.7578125 1.3515625 3 3 C3.1875 5.6875 3.1875 5.6875 3 8 C1.68 8 0.36 8 -1 8 C-0.67 6.02 -0.34 4.04 0 2 C-2.31 2.33 -4.62 2.66 -7 3 C-7 8.61 -7 14.22 -7 20 C-8.98 20 -10.96 20 -13 20 C-12.96519531 18.30230469 -12.96519531 18.30230469 -12.9296875 16.5703125 C-12.91093099 15.08854825 -12.89273066 13.60677688 -12.875 12.125 C-12.85824219 11.37863281 -12.84148438 10.63226562 -12.82421875 9.86328125 C-12.8066041 7.90805539 -12.89679811 5.95257979 -13 4 C-13.66 3.34 -14.32 2.68 -15 2 C-10.14783889 0.0093698 -5.20487532 -0.92200649 0 0 Z " fill="#FFFBE5" transform="translate(684,1211)"/>
<path d="M0 0 C1.99954746 -0.04254356 4.00041636 -0.04080783 6 0 C7 1 7 1 7.1328125 4.125 C7.13023437 5.40375 7.12765625 6.6825 7.125 8 C7.12757813 9.27875 7.13015625 10.5575 7.1328125 11.875 C7 15 7 15 6 16 C3.5625 16.1875 3.5625 16.1875 1 16 C-1 14 -1 14 -1.23046875 11.25 C-1.21628906 10.1775 -1.20210937 9.105 -1.1875 8 C-1.18105469 6.9275 -1.17460938 5.855 -1.16796875 4.75 C-1 2 -1 2 0 0 Z " fill="#FFDD09" transform="translate(791,1213)"/>
<path d="M0 0 C0 2.97 0 5.94 0 9 C2.31 9 4.62 9 7 9 C6.01 10.485 6.01 10.485 5 12 C3.35 11.67 1.7 11.34 0 11 C0.14058476 13.45873768 0.28722999 15.91685175 0.4375 18.375 C0.47681641 19.07367187 0.51613281 19.77234375 0.55664062 20.4921875 C0.74280134 24.37360492 0.74280134 24.37360492 2 28 C-0.31 28 -2.62 28 -5 28 C-4.67 27.34 -4.34 26.68 -4 26 C-3.76827173 23.45384991 -3.58105471 20.92603775 -3.4375 18.375 C-3.37272461 17.31539062 -3.37272461 17.31539062 -3.30664062 16.234375 C-3.20055249 14.48981463 -3.09977111 12.74493303 -3 11 C-5.31 11 -7.62 11 -10 11 C-9.34 10.01 -8.68 9.02 -8 8 C-6.35 8.33 -4.7 8.66 -3 9 C-3.66 6.36 -4.32 3.72 -5 1 C-3 0 -3 0 0 0 Z " fill="#FFFEF9" transform="translate(1213,1203)"/>
<path d="M0 0 C2.4375 0.375 2.4375 0.375 5 1 C6.29376578 3.58753156 6.16832397 5.54958985 6.1875 8.4375 C6.20167969 9.40558594 6.21585938 10.37367187 6.23046875 11.37109375 C6 14 6 14 4 17 C2.35 16.67 0.7 16.34 -1 16 C-1.97551509 13.07345473 -2.16478088 11.05345004 -2.1875 8 C-2.20167969 7.13375 -2.21585938 6.2675 -2.23046875 5.375 C-2 3 -2 3 0 0 Z " fill="#FFDD0A" transform="translate(847,1213)"/>
<path d="M0 0 C0.02505615 0.77714355 0.0501123 1.55428711 0.07592773 2.35498047 C0.19166796 5.86183069 0.31449352 9.36839745 0.4375 12.875 C0.47681641 14.09832031 0.51613281 15.32164063 0.55664062 16.58203125 C0.61948242 18.33193359 0.61948242 18.33193359 0.68359375 20.1171875 C0.72025146 21.19597168 0.75690918 22.27475586 0.79467773 23.38623047 C0.83376643 25.98069536 0.83376643 25.98069536 2 28 C-0.31 28 -2.62 28 -5 28 C-4.67 27.34 -4.34 26.68 -4 26 C-3.90370351 24.28337877 -3.86924974 22.56306882 -3.8671875 20.84375 C-3.86525391 19.31041016 -3.86525391 19.31041016 -3.86328125 17.74609375 C-3.86714844 16.67488281 -3.87101563 15.60367187 -3.875 14.5 C-3.87113281 13.42878906 -3.86726562 12.35757812 -3.86328125 11.25390625 C-3.86457031 10.23167969 -3.86585938 9.20945312 -3.8671875 8.15625 C-3.86831543 7.21587891 -3.86944336 6.27550781 -3.87060547 5.30664062 C-3.84867599 2.97230128 -3.84867599 2.97230128 -5 1 C-3 0 -3 0 0 0 Z " fill="#FFFEFB" transform="translate(980,1203)"/>
<path d="M0 0 C0.33 6.6 0.66 13.2 1 20 C-0.98 20 -2.96 20 -5 20 C-4.67 14.39 -4.34 8.78 -4 3 C-4.99 2.67 -5.98 2.34 -7 2 C-4.35261084 0.5393715 -3.10551666 0 0 0 Z " fill="#FFFCEA" transform="translate(1291,1211)"/>
<path d="M0 0 C0.33 6.6 0.66 13.2 1 20 C-0.98 20 -2.96 20 -5 20 C-5 13.73 -5 7.46 -5 1 C-3 0 -3 0 0 0 Z " fill="#FFFCEA" transform="translate(755,1211)"/>
<path d="M0 0 C2.64 0 5.28 0 8 0 C7.67 0.66 7.34 1.32 7 2 C6.87606534 4.5132797 6.81484888 6.98670114 6.8125 9.5 C6.80025391 10.18964844 6.78800781 10.87929687 6.77539062 11.58984375 C6.77011305 13.39477494 6.87815542 15.19917842 7 17 C7.66 17.66 8.32 18.32 9 19 C6.24921116 19.91692961 4.64051087 20.10886083 1.8125 20.0625 C-0.0746875 20.0315625 -0.0746875 20.0315625 -2 20 C-1.02160156 19.49146484 -1.02160156 19.49146484 -0.0234375 18.97265625 C2.3603274 17.05578801 2.3603274 17.05578801 2.4609375 13.49609375 C2.45298562 12.14294929 2.42361606 10.78979421 2.375 9.4375 C2.37371094 8.75236328 2.37242188 8.06722656 2.37109375 7.36132812 C2.38802627 3.22407816 2.38802627 3.22407816 0 0 Z " fill="#FFFEF8" transform="translate(1141,1211)"/>
<path d="M0 0 C2.5625 -0.25 2.5625 -0.25 5 0 C6 1 6 1 6.25 4.4375 C6.1675 5.613125 6.085 6.78875 6 8 C2.77208445 10.1519437 1.71599191 10.20086443 -2 10 C-2.25 3.375 -2.25 3.375 0 0 Z " fill="#FFDE10" transform="translate(1340,1213)"/>
<path d="M0 0 C2.5625 -0.25 2.5625 -0.25 5 0 C6 1 6 1 6.25 4.4375 C6.1675 5.613125 6.085 6.78875 6 8 C2.77208445 10.1519437 1.71599191 10.20086443 -2 10 C-2.25 3.375 -2.25 3.375 0 0 Z " fill="#FFDE10" transform="translate(1083,1213)"/>
<path d="M0 0 C4.875 0.875 4.875 0.875 6 2 C5.71269945 4.33944736 5.38063221 6.6739143 5 9 C2.69 9.33 0.38 9.66 -2 10 C-2.25 3.375 -2.25 3.375 0 0 Z " fill="#FFDD0B" transform="translate(993,1213)"/>
<path d="M0 0 C-0.75 4.75 -0.75 4.75 -3 7 C-3.99 7 -4.98 7 -6 7 C-6.33 6.01 -6.66 5.02 -7 4 C-7.99 3.34 -8.98 2.68 -10 2 C-8.7090864 1.66376204 -7.41723903 1.33110751 -6.125 1 C-5.40570312 0.814375 -4.68640625 0.62875 -3.9453125 0.4375 C-2 0 -2 0 0 0 Z " fill="#FFE01D" transform="translate(798,1231)"/>
<path d="M0 0 C1.32 0.66 2.64 1.32 4 2 C3.25 7.75 3.25 7.75 1 10 C0.01 9.67 -0.98 9.34 -2 9 C-1.855625 8.443125 -1.71125 7.88625 -1.5625 7.3125 C-0.97230872 4.88615805 -0.476571 2.45093655 0 0 Z " fill="#FFFADC" transform="translate(1011,1226)"/>
<path d="M0 0 C1.875 1.125 1.875 1.125 2.875 2.125 C2.91563832 3.79117115 2.917721 5.45888095 2.875 7.125 C1.555 7.455 0.235 7.785 -1.125 8.125 C-2.25 4.375 -2.25 4.375 -1.125 2.125 C-2.445 1.465 -3.765 0.805 -5.125 0.125 C-2.125 -0.875 -2.125 -0.875 0 0 Z " fill="#FFF8CF" transform="translate(900.125,1211.875)"/>
<path d="M0 0 C2.31 0 4.62 0 7 0 C6.73445312 0.51949219 6.46890625 1.03898437 6.1953125 1.57421875 C4.29301903 5.33020694 2.48040295 9.05225879 1 13 C0.34 12.67 -0.32 12.34 -1 12 C-0.01 8.37 0.98 4.74 2 1 C1.34 0.67 0.68 0.34 0 0 Z " fill="#FFFADC" transform="translate(831,1211)"/>
<path d="M0 0 C1.6875 1.875 1.6875 1.875 1.9375 4.5625 C1.855 5.325625 1.7725 6.08875 1.6875 6.875 C0.3675 6.875 -0.9525 6.875 -2.3125 6.875 C-2.3125 2.875 -2.3125 2.875 -1.3125 0.875 C-3.2925 0.875 -5.2725 0.875 -7.3125 0.875 C-7.3125 0.545 -7.3125 0.215 -7.3125 -0.125 C-4.29981243 -1.04554342 -2.88520838 -1.40361489 0 0 Z " fill="#FFF8D1" transform="translate(727.3125,1204.125)"/>
<path d="M0 0 C1.32 0 2.64 0 4 0 C4.66 2.31 5.32 4.62 6 7 C3.69 6.34 1.38 5.68 -1 5 C-0.67 3.35 -0.34 1.7 0 0 Z " fill="#FFDF17" transform="translate(922,1213)"/>
<path d="M0 0 C0.99 0.33 1.98 0.66 3 1 C-1.30769231 5.92307692 -1.30769231 5.92307692 -4.8125 6.3125 C-5.8953125 6.1578125 -5.8953125 6.1578125 -7 6 C-6.67 5.01 -6.34 4.02 -6 3 C-5.195625 2.87625 -4.39125 2.7525 -3.5625 2.625 C-2.716875 2.41875 -1.87125 2.2125 -1 2 C-0.67 1.34 -0.34 0.68 0 0 Z " fill="#FFF7C4" transform="translate(1000,1226)"/>
<path d="M0 0 C0 1.65 0 3.3 0 5 C-1.32 5 -2.64 5 -4 5 C-4 3.68 -4 2.36 -4 1 C-2 0 -2 0 0 0 Z " fill="#FFFCEC" transform="translate(687,1214)"/>
<path d="M0 0 C0.99 0.33 1.98 0.66 3 1 C3 2.32 3 3.64 3 5 C1.35 4.67 -0.3 4.34 -2 4 C-1.34 2.68 -0.68 1.36 0 0 Z " fill="#FFFADC" transform="translate(752,1202)"/>
<path d="M0 0 C3.125 0.375 3.125 0.375 6 1 C6 1.33 6 1.66 6 2 C4.35 2 2.7 2 1 2 C0.67 2.66 0.34 3.32 0 4 C-2.0625 5.125 -2.0625 5.125 -4 6 C-2.84826645 3.53199953 -1.95216435 1.95216435 0 0 Z " fill="#FFF7CA" transform="translate(1187,1211)"/>
<path d="M0 0 C0.99 0.33 1.98 0.66 3 1 C3 2.32 3 3.64 3 5 C1.68 5 0.36 5 -1 5 C-0.67 3.35 -0.34 1.7 0 0 Z " fill="#FFFBE6" transform="translate(1288,1202)"/>
<path d="M0 0 C2.00720923 0.28674418 4.0085944 0.61866701 6 1 C3.06279492 2.52299523 0.0831351 3.80100302 -3 5 C-1.125 1.125 -1.125 1.125 0 0 Z " fill="#FFF7C8" transform="translate(1238,1211)"/>
</svg>
